<?xml version="1.0" encoding="UTF-8"?>
<svg xmlns="http://www.w3.org/2000/svg" version="1.1" viewBox="0 0 512 512">
  <!-- Generator: Adobe Illustrator 30.1.0, SVG Export Plug-In . SVG Version: 2.1.1 Build 136)  -->
  <defs>
    <style>
      .st0 {
        fill: #fff;
        fill-rule: evenodd;
      }

      .st1 {
        fill: #4d6bfe;
      }
    </style>
  </defs>
  <g id="Layer_1" image-rendering="optimizeQuality" shape-rendering="geometricPrecision" text-rendering="geometricPrecision">
    <path class="st0" d="M254.82,1.18h2.36c140.15,0,254.82,114.67,254.82,254.82h0c0,140.15-114.67,254.82-254.82,254.82h-2.36C114.67,510.82,0,396.15,0,256h0C0,115.85,114.67,1.18,254.82,1.18Z"/>
    <path class="st1" d="M440.9,140.35c-4-1.96-5.72,1.78-8.06,3.67-.8.61-1.48,1.41-2.15,2.14-5.85,6.25-12.68,10.35-21.61,9.86-13.05-.73-24.19,3.37-34.04,13.35-2.09-12.31-9.05-19.66-19.64-24.37-5.54-2.45-11.14-4.9-15.02-10.23-2.71-3.79-3.45-8.02-4.8-12.18-.86-2.51-1.73-5.08-4.62-5.51-3.14-.49-4.37,2.14-5.6,4.35-4.92,9-6.83,18.92-6.65,28.96.43,22.6,9.97,40.6,28.93,53.4,2.15,1.47,2.71,2.94,2.03,5.08-1.29,4.41-2.83,8.7-4.19,13.1-.86,2.82-2.16,3.43-5.17,2.21-10.4-4.35-19.39-10.78-27.33-18.55-13.48-13.04-25.67-27.43-40.87-38.7-3.52-2.6-7.13-5.07-10.83-7.41-15.51-15.06,2.03-27.43,6.09-28.9,4.25-1.53,1.48-6.8-12.25-6.74-13.73.06-26.29,4.65-42.29,10.78-2.34.92-4.8,1.59-7.33,2.14-14.53-2.76-29.61-3.37-45.37-1.59-29.67,3.3-53.37,17.33-70.79,41.27-20.93,28.79-25.85,61.48-19.82,95.59,6.34,35.94,24.68,65.7,52.88,88.97,29.24,24.12,62.91,35.94,101.32,33.68,23.33-1.35,49.31-4.47,78.61-29.27,7.39,3.67,15.14,5.14,28.01,6.25,9.91.92,19.45-.49,26.84-2.02,11.57-2.45,10.77-13.17,6.59-15.12-33.92-15.8-26.47-9.37-33.24-14.57,17.23-20.39,43.21-41.58,53.37-110.22.8-5.45.12-8.88,0-13.29-.06-2.69.55-3.73,3.63-4.04,8.49-.98,16.74-3.3,24.31-7.47,21.98-12,30.84-31.72,32.93-55.35.31-3.61-.06-7.35-3.88-9.24h0s0,0,0,0ZM249.4,353.07c-32.87-25.84-48.81-34.35-55.4-33.98-6.15.37-5.05,7.41-3.69,12,1.41,4.53,3.26,7.65,5.85,11.63,1.79,2.63,3.02,6.55-1.78,9.49-10.59,6.55-28.99-2.2-29.86-2.64-21.42-12.61-39.33-29.27-51.95-52.05-12.19-21.92-19.27-45.43-20.43-70.54-.31-6.06,1.48-8.21,7.51-9.31,7.94-1.47,16.13-1.78,24.07-.62,33.55,4.9,62.11,19.9,86.05,43.66,13.67,13.53,24.01,29.7,34.66,45.5,11.33,16.78,23.51,32.76,39.03,45.86,5.48,4.59,9.85,8.08,14.04,10.66-12.62,1.41-33.67,1.71-48.07-9.68h0ZM265.3,250.55c.52-2.11,2.42-3.66,4.72-3.66.57,0,1.13.1,1.66.3.68.25,1.29.61,1.79,1.16.86.86,1.35,2.08,1.35,3.37,0,2.7-2.15,4.84-4.86,4.84-2.36.02-4.38-1.7-4.74-4.03-.11-.66-.08-1.33.08-1.98h0ZM312.51,277.47c-2.61,1-5.2,1.78-7.71,1.88-4.68.24-9.79-1.65-12.56-3.98-4.31-3.61-7.39-5.63-8.68-11.94-.55-2.7-.25-6.86.25-9.25,1.11-5.14-.12-8.45-3.75-11.45-2.95-2.45-6.71-3.12-10.83-3.12-1.54,0-2.95-.67-4-1.22-1.72-.86-3.14-3-1.79-5.63.43-.86,2.52-2.94,3.02-3.3,5.6-3.18,12.07-2.14,18.03.24,5.54,2.27,9.73,6.43,15.76,12.31,6.15,7.1,7.26,9.06,10.77,14.39,2.77,4.16,5.29,8.45,7.02,13.35.88,2.56.07,4.74-2.34,6.28-.98.62-2.11,1.04-3.19,1.46h0Z"/>
  </g>
</svg>