<?xml version="1.0" encoding="UTF-8"?>
<svg id="Layer_1" xmlns="http://www.w3.org/2000/svg" version="1.1" viewBox="0 0 512 512">
  <!-- Generator: Adobe Illustrator 30.1.0, SVG Export Plug-In . SVG Version: 2.1.1 Build 136)  -->
  <defs>
    <style>
      .st0 {
        fill-rule: evenodd;
      }

      .st1 {
        fill: #fff;
      }
    </style>
  </defs>
  <circle class="st1" cx="256" cy="256" r="256"/>
  <path class="st0" d="M219.4,299.6l106.95-79.06c5.24-3.89,12.74-2.37,15.24,3.65,13.14,31.76,7.27,69.91-18.9,96.11-26.15,26.2-62.57,31.93-95.84,18.85l-36.34,16.85c52.14,35.67,115.44,26.85,155-12.78,31.38-31.42,41.1-74.26,32.01-112.88l.08.09c-13.18-56.73,3.24-79.42,36.87-125.79.8-1.1,1.61-2.2,2.4-3.32l-44.25,44.31v-.13l-153.26,154.13M197.32,318.81c-37.43-35.79-30.97-91.17.95-123.12,23.61-23.63,62.3-33.29,96.07-19.1l36.26-16.76c-7.54-5.54-15.78-10.05-24.52-13.41-44.91-18.38-96.46-7.99-130.73,26.36-33.96,34-44.64,86.28-26.3,130.9,13.7,33.34-8.75,56.92-31.37,80.73-8.03,8.45-16.07,16.88-22.55,25.81l102.15-91.36"/>
</svg>