<?xml version="1.0" encoding="UTF-8"?>
<svg id="Layer_1" xmlns="http://www.w3.org/2000/svg" version="1.1" viewBox="0 0 512 512">
  <!-- Generator: Adobe Illustrator 30.1.0, SVG Export Plug-In . SVG Version: 2.1.1 Build 136)  -->
  <defs>
    <style>
      .st0 {
        fill: #fff;
      }
    </style>
  </defs>
  <circle class="st0" cx="256" cy="256" r="256"/>
  <g>
    <path d="M266.44,146.34c6.49-.02,12.13-4.47,13.66-10.78,3.38-13.5,6.46-22.46,11.79-31.23,3.96-6.63,1.86-15.22-4.73-19.26v-.02c-6.64-3.98-15.24-1.87-19.28,4.73-7.47,12.31-11.39,24.41-15.03,38.97-.28,1.11-.43,2.26-.44,3.41-.04,7.79,6.24,14.14,14.03,14.19Z"/>
    <path d="M196.71,93.44c1.3,5.27,2.54,9.74,3.67,13.86v.02c2.14,7.85,3.89,14.33,5.17,22.09,1.14,6.77,7,11.73,13.86,11.74.7,0,1.4-.06,2.09-.17,7.71-1.22,12.97-8.45,11.75-16.16-1.51-9.16-3.87-17.84-6.23-26.55l-.07-.25c-1.04-3.78-2.07-7.56-3.02-11.39-1.48-6.3-7.18-10.8-13.64-10.8-1.15,0-2.29.15-3.41.44-7.55,1.93-12.11,9.61-10.18,17.16h0Z"/>
    <path d="M137.47,136.08c10.01,4.9,18.68,9.74,27.27,19.42,5.32,5.64,14.21,5.9,19.85.58,5.4-5.09,5.9-13.51,1.15-19.21-12.24-13.79-24.84-20.57-35.91-25.99-6.96-3.36-15.32-.5-18.77,6.41-3.38,6.96-.52,15.34,6.41,18.79Z"/>
    <path d="M400.63,294.36s-4.32-14.8-14.85-14.8c-8.08,0-12.53,6.5-14.17,9.54-1.42-.52-2.88-.99-4.01-1.35l-2.3-.74-1.55-.47-3.55-1.17v-.41c.05-8.95-.85-22.93-10.21-37.48-1.49-2.32-2.9-4.41-4.1-6.16l-.88-1.26-2.16-3.22c-1.66-2.52-2.11-3.51-2.32-3.96-.18-.51-.25-1.06-.22-1.6,0-2.76.31-5.52.92-8.21l4.5-17.84.16-.81-27.85-5.58,27.85,5.56v-.07l.05-.27c.76-4.5.81-9.07.13-13.57-1.08-7.04-5.2-20.39-19.66-28.12l-2.84-1.53-3.13-.85-7.18,26.78,7.16-26.8h-.09l-.34-.11-.54-.11c-5.2-1.19-10.55-1.6-15.89-1.22-11.5.85-22.38,5.54-30.89,13.32l-1.39,1.26-1.19,1.42c-6.03,7.25-12.4,16.18-17.23,24.12-14.67-6.86-31.93-14.74-43.99-18.97-13.25-4.66-28.03-8.53-41.94-8.03-15.37.56-32.67,6.95-41.74,25.09-3.97,7.77-5.16,16.66-3.38,25.2,1.66,7.48,5.34,14.37,10.64,19.91,8.01,8.55,18.74,13.88,26.28,17.1,5.57,2.33,11.25,4.39,17.01,6.19-.56.99-1.12,2.02-1.66,3.08-1.58,3.08-3.49,7.24-4.73,11.99-1.72,6.24-1.87,12.81-.45,19.12,1.57,6.95,4.93,13.36,9.74,18.61-.18,2.55-.23,5.1-.14,7.65.58,17.71,11.5,29.5,21.06,36.18,9.14,6.37,19.87,10.28,28.55,12.94,8.39,2.52,17.23,4.54,24.43,6.19l1.55.34c5.53,1.12,10.99,2.54,16.36,4.25l.47.18.49.16c6.7,2.23,20.95,5.42,31.46,7.7,2.86.65,5.65,1.22,8.19,1.78v-.02c11.45,30.15,26.84,49.77,47.63,36.56,27.23-17.26,46.03-109.89,41.92-137.45ZM359.88,326.58c-4.68,16.56-9.34,33.03-23.24,37.96-9.47,3.38-18.95,3.22-25.65,2.34-11.79-2.54-25.74-5.69-30.98-7.42-5.45-2.02-13.07-3.76-21.38-5.65-19.73-4.5-43.24-9.85-49.95-21.94-1.16-2.05-1.81-4.35-1.89-6.71-.38-11.09,3.51-21.06,3.51-21.06,0,0-6.03.02-10.26-4.05-1.8-1.75-3.05-4-3.58-6.46-.49-2.17-.62-4.4-.38-6.61.14,0,.18-.11.18-.41,0-3.51,3.51-10.53,10.53-17.55v-.02c1.78-1.8,7.07-5.56,17.05-6.68,11.42-1.16,22.95.73,33.41,5.47,9.34,4.14,15.79,13.64,18.49,25.02,1.33,5.56,1.58,10.96.99,15.37-.61,4.66-1.91,6.97-2.54,7.65-.74.9-3.42,2.36-10.8.81-3.97-.86-7.82-2.2-11.48-3.98l-.09-.04c-7-3.43-15.45-.54-18.88,6.46-.93,1.91-1.43,4-1.44,6.12,0,5.15,2.86,9.9,7.42,12.35l.04.02.47.22c5.76,2.82,11.83,4.93,18.09,6.3,9.23,1.96,26.26,3.44,37.8-9.79,5.56-6.34,8.23-14.69,9.22-22.5,1.03-8.51.52-17.14-1.48-25.47-4.03-16.92-14.65-35.42-34.47-44.21-15.02-6.75-31.55-9.4-47.92-7.7-8.85.89-17.45,3.45-25.34,7.56l-.31-.09h-.02c-17.78-5.04-53.1-15.12-44.37-32.53,6.59-13.18,24.64-12.1,49.12-3.51,9.95,3.49,23.76,9.72,36.81,15.77,4.05,1.87,8.01,3.76,11.74,5.51l14.62,6.79c10.39-12.46,14.42-19.35,18-25.42,2.43-4.16,4.68-7.94,8.59-12.91l.36-.49,2.21-2.7.29-.25c9.63-8.51,20.84-5.4,20.84-5.4,6.41,3.42,4.77,12.08,4.77,12.08l-4.43,17.68c-4.27,20.79.45,27.67,8.19,38.99,1.35,2,2.84,4.12,4.37,6.5,6.16,9.63,5.87,18.9,5.65,26.46-.16,4.86-.29,9.05,1.35,12.15,3.38,6.37,15.91,10.35,24.14,12.92,1.98.63,3.71,1.17,4.99,1.66l.9.34c-1.17,3.6-2.23,7.33-3.29,11.05Z"/>
  </g>
</svg>