<?xml version="1.0" encoding="UTF-8"?>
<svg id="Layer_1" xmlns="http://www.w3.org/2000/svg" xmlns:xlink="http://www.w3.org/1999/xlink" version="1.1" viewBox="0 0 512 512">
  <!-- Generator: Adobe Illustrator 30.1.0, SVG Export Plug-In . SVG Version: 2.1.1 Build 136)  -->
  <defs>
    <style>
      .st0 {
        fill: none;
      }

      .st1 {
        fill: #fa500f;
      }

      .st2 {
        fill: #ffd800;
      }

      .st3 {
        fill: #ff8205;
      }

      .st4 {
        clip-path: url(#clippath-1);
      }

      .st5 {
        fill: #fff;
      }

      .st6 {
        fill: #ffaf00;
      }

      .st7 {
        clip-path: url(#clippath);
      }

      .st8 {
        fill: #e10500;
      }
    </style>
    <clipPath id="clippath">
      <rect class="st0" x="84.81" y="135" width="342.39" height="242"/>
    </clipPath>
    <clipPath id="clippath-1">
      <rect class="st0" x="84.81" y="135" width="340.85" height="242"/>
    </clipPath>
  </defs>
  <circle class="st5" cx="256" cy="256" r="256"/>
  <g class="st7">
    <g class="st4">
      <g>
        <path class="st2" d="M133.48,135h48.7v48.56h-48.7v-48.56ZM328.27,135h48.7v48.56h-48.7v-48.56Z"/>
        <path class="st6" d="M133.48,183.56h97.39v48.56h-97.39v-48.56ZM279.59,183.56h97.39v48.56h-97.39v-48.56Z"/>
        <path class="st3" d="M133.48,232.1h243.47v48.56h-243.47v-48.56Z"/>
        <path class="st1" d="M133.48,280.66h48.7v48.56h-48.7v-48.56ZM230.89,280.66h48.7v48.56h-48.7v-48.56ZM328.27,280.66h48.7v48.56h-48.7v-48.56Z"/>
        <path class="st8" d="M84.8,329.21h146.08v48.56H84.8v-48.56ZM279.59,329.21h146.09v48.56h-146.09v-48.56Z"/>
      </g>
    </g>
  </g>
</svg>