<?xml version="1.0" encoding="UTF-8" standalone="no"?>
<svg
   width="1500"
   height="1500"
   version="1.1"
   id="svg3"
   xmlns:inkscape="http://www.inkscape.org/namespaces/inkscape"
   xmlns:sodipodi="http://sodipodi.sourceforge.net/DTD/sodipodi-0.dtd"
   xmlns="http://www.w3.org/2000/svg"
   xmlns:svg="http://www.w3.org/2000/svg">
  <sodipodi:namedview
     id="namedview3"
     pagecolor="#ffffff"
     bordercolor="#000000"
     borderopacity="0.25"
     inkscape:showpageshadow="2"
     inkscape:pageopacity="0.0"
     inkscape:pagecheckerboard="0"
     inkscape:deskcolor="#d1d1d1" />
  <defs
     id="defs1" />
  <g
     transform="translate(321.42857142857144, 327.8571428571429) scale(2.142857142857143)"
     id="g3">
    <g
       transform="translate(0, 0) scale(1 1) rotate(0)"
       fill="#3380b3"
       id="g2">
      <svg
         width="400"
         height="394"
         viewBox="0 0 400 394"
         version="1.1"
         id="svg1">
        <g
           stroke="none"
           class="c1"
           id="g1">
          <path
             d="M 185.54444341512237,0.2711663930647603 C 182.39345623808566,0.48123220486723994 175.98644897811096,1.268978999126432 171.4175175714077,2.0042093404349828 C 136.3890434533492,7.781019165002363 110.02578407214185,18.126760396272942 84.18768922044055,36.19242021128363 C 74.41962897162668,43.01955909486324 68.85288495886175,47.79855631336892 57.66688048038131,59.0370772448 C 44.222668525024574,72.48128920015674 36.18765122358087,82.51193171372367 27.732502298532268,96.42879174563595 C 3.67996684715186,136.02619727039766 -5.300346607402872,185.49669594987452 3.049769411744478,231.81620745231461 C 8.87909568926247,263.95627665808934 24.003834139038815,296.46396103451843 45.06293177223435,321.8819242626148 C 50.68219223794989,328.70906314619447 61.29051573397359,339.47493600106986 67.90758880575072,345.19922937268666 C 93.7982001104026,367.518721876697 128.40654260485616,383.95637165023857 162.9623686463591,390.3633789102133 C 210.48975856666323,399.18614300591616 261.6933001935103,390.6259611749664 302.7086499479385,366.99355734719086 C 309.01062430201205,363.4224385465491 320.98437557475165,355.3349047921548 325.97343860505987,351.34365436790824 C 335.163817871417,343.99135095482256 348.3454475620207,330.9672706230707 356.74808003411863,320.83159520360255 C 373.65837788421584,300.56024436466623 387.36517210432555,272.62149139494045 394.507409705609,244.00002453685667 C 398.6036930357567,227.77244057511743 399.5489891888677,219.73742327367378 399.916604359522,198.46825982867577 C 400.2317030772256,179.35227095465282 399.7590550006702,173.4704282241843 396.660584276584,157.97807460375364 C 391.251389622671,131.29971650484256 379.6452535205857,104.30625968822781 364.20541635310565,82.66948107257556 C 352.33669798626715,66.02176548723142 335.42640013617006,49.374049901887304 317.20319096230753,36.402486023086084 C 293.15065551092715,19.22960590823581 266.8399125826703,8.358700147459103 235.54010662410536,2.581890322891752 C 224.77423376922985,0.6387815637190499 199.14620472933103,-0.5690968541450161 185.54444341512237,0.2711663930647603 M 224.14403633382244,16.761332619557066 C 244.5204200786601,19.334638814137065 263.0062115172756,24.901382826901994 281.64955231474295,34.09176209325915 C 302.3410347772843,44.27995396567792 314.52485186182633,53.31278387318321 332.90561039454064,71.95612467065061 C 348.7655791856256,88.13119217943924 357.378277469526,100.26249281103068 366.72620609473495,119.58854749685602 C 374.55115758437626,135.7636150056446 379.1726054440302,151.30848507902587 382.4811419799187,172.47261561812266 C 383.63650394483216,179.77240257825778 384.1091520213878,201.0940824762064 383.3214052271286,209.75929721305747 C 382.2185597151656,221.99563075055008 379.01505608517834,240.95407026572119 377.80717766731425,242.58208030719018 C 377.2294966848574,243.36982710144937 376.336716984697,242.73962966604196 370.5599071601297,237.43546791803013 C 357.22072811067414,225.19913438053746 346.402338802848,218.7396106676122 330.3848206529113,213.2253831077978 C 321.1944413865541,210.1269123837117 314.52485186182633,208.60393524814393 297.6145540117292,205.87307969471206 C 289.6845696161867,204.5601683709468 280.9143219734344,202.9846747824284 278.1834664200026,202.40699379997173 C 262.8486621584238,198.9934243581819 249.2469008442152,192.06125256870106 239.42632414245065,182.7133239434921 C 231.391306841007,175.0459218127027 226.76985898135308,167.74613485256756 223.82893761611882,158.0305910567043 C 222.5160262923535,153.77675836770467 222.41099338645228,152.46384704393935 222.35847693350166,144.90147781905122 C 222.30596048055105,135.9211643644965 222.83112501005712,132.82269364041034 225.561980563489,126.10058766273195 C 227.08495769905676,122.31940305028789 230.60356004674782,116.75265903752299 233.38693205313024,113.65418831343683 C 235.59262307705598,111.23843147770864 240.4766532014629,107.5622797711658 243.99525554915397,105.77672037084503 C 251.66265767994338,101.78546994659845 237.3781824773768,103.72857870577107 228.39786902282208,107.92989494182004 C 217.7370290738478,112.86644151917764 208.9142649781449,123.15966629749764 205.13308036570083,135.1859340231879 C 204.03023485373797,138.80956927678014 203.92520194783668,139.96493124169356 203.92520194783668,150.67828764361857 L 203.97771840078735,162.23190729275328 L 205.65824489520696,167.22097032306144 C 214.95365706746531,194.16191068672558 237.6932811950805,212.5951856723905 271.9340085188797,220.9978181444885 C 274.97996279001524,221.733048485797 284.53795722702665,223.62364079201907 293.2031719638777,225.19913438053746 C 301.8683867007287,226.77462796905584 311.68896340249324,228.82276963412968 315.05001639133246,229.6630328813395 C 330.85746872946675,233.75931621148723 344.82684521432964,241.21665253047425 355.0150370867484,251.14226213813996 C 360.52926464656275,256.49894033910243 368.1966667773521,265.58428669955833 368.82686421275946,267.527395458731 C 369.19447938341375,268.7352738765951 368.1966667773521,271.72871169478003 367.408919983093,271.72871169478003 C 367.14633771833996,271.72871169478003 363.5752189176983,268.47269161184204 359.4789355875505,264.48144118759546 C 351.3388853802056,256.55145679205305 346.92750333235415,253.29543670911508 338.7349366720586,249.19915337896734 C 325.5007905285043,242.5295638542395 315.5226644678879,239.90374120670893 288.2141089335695,235.75494142361057 C 264.2140899351397,232.1313061700183 250.61232862093112,228.56018736937662 238.95367606589514,222.73086109185866 C 217.42193035614412,211.96498823698315 201.77202737686167,195.89495363409574 193.94707588722036,176.46386604236918 C 190.1658912747763,166.90587160535776 188.59039768625792,156.5601303740871 189.11556221576404,144.63889555429816 C 189.48317738641833,137.02400987645936 190.27092418067747,133.0327594522128 192.73919746935627,126.41568638043563 C 199.56633635293588,108.24499365952377 214.21842672615674,94.85329815711762 231.18124102920456,91.22966290352534 C 235.9602382477102,90.23185029746375 249.19438439126458,90.54694901516743 253.81583225091845,91.80734388598208 C 264.5291886528434,94.69574879826578 276.0302918490275,104.30625968822781 280.8618055204838,114.44193510769603 C 283.5926610739157,120.21874493226338 284.2753749622736,123.63231437405321 284.2753749622736,132.0349468461512 C 284.2753749622736,138.54698701202707 284.06530915047114,140.22751350644663 283.0149800914589,143.5885664952859 C 281.43948650294055,148.63014597854462 279.9690258203234,151.51855089082832 276.92307154918785,155.40476840917367 C 274.7698969782128,158.1881404155561 274.61234761936095,158.55575558621038 275.557643772472,158.71330494506222 C 277.86836770229894,159.0809201157165 284.8005394917797,154.3019228972108 289.9996683338904,148.84021179034713 C 302.0784525125312,136.02619727039766 302.60361704203734,114.54696801359725 291.36509611060626,95.79859431022865 C 283.1725294503108,82.14431654306944 271.2512946305217,71.7985753117988 254.8661613099307,63.97362382215755 C 244.62545298456126,59.1421101507012 233.1768662413278,55.728540708911396 221.36066432744002,54.04801421449184 C 213.58822929074944,52.89265224957833 190.74357225723304,53.20775096728204 182.5510055969375,54.52066229104733 C 166.79606971175383,57.041452032676716 148.25776182018762,63.97362382215755 136.07394473564557,71.95612467065061 C 119.63629496210388,82.61696461962495 105.98201719494466,97.42660435169759 98.15706570530347,112.97147442507887 C 93.22051912794592,122.89708403274457 89.70191678025486,134.66076949368178 88.599071268292,145.21657653675484 C 87.65377511518099,154.1443735383589 88.28397255058832,173.83804339483854 89.70191678025486,180.6126658254676 C 92.43277233368673,193.426680345417 99.83759219972302,211.3347908015758 107.24241206575937,223.04595980956233 C 119.58377850915326,242.58208030719018 137.7019547771145,260.3851578574478 157.55317399244603,272.411425583138 C 167.63633295896364,278.50333412540897 184.9667624326657,286.74841723865507 196.31031626999794,290.73966766290175 C 197.88580985851627,291.2648321924079 207.8114194661821,294.3633029164939 218.3672265092551,297.5142900935306 C 239.58387350130255,303.92129735350534 249.0893514853633,307.33486679529517 256.96681942795516,311.27360076659113 C 272.35414014248465,318.9935193503311 287.42636213931036,330.65217190536714 294.0959516640381,340.0526169835266 C 296.87932367042055,343.99135095482256 298.9274653354945,347.3524039436618 298.50733371188954,347.3524039436618 C 298.34978435303776,347.3524039436618 296.72177431156877,346.03949261989646 294.93621491124793,344.41148257842747 C 287.5313950452116,337.79440950665025 279.758960008521,333.3305110058483 270.2009655715095,330.2320402817621 C 259.54012562253524,326.8184708399724 250.13968054437555,325.1379443455528 228.34535256987147,322.93225332162706 C 191.426286145591,319.0985522562323 173.51817568943216,314.73968666133146 151.93391352673046,304.34142897711024 C 120.26649239751129,289.05914116848214 96.68660502268631,269.68057002970613 71.68877341819484,238.27573116523993 C 68.95791786476298,234.8621617234501 66.33209521723236,231.763690999364 65.85944714067685,231.34355937575916 C 64.3364700051091,230.0831645049444 64.86163453461523,232.1838226229689 67.32990782329401,237.7505666357338 C 71.26864179458994,246.46829782553547 78.09578067816955,256.60397324500366 87.65377511518099,268.05255998823714 C 97.68441762874795,280.02631126097674 109.23803727788265,289.7943715097906 130.03455264632515,303.7112315417029 C 134.44593469417657,306.7046693598878 137.96453704186757,309.22545910151723 137.8595041359664,309.38300846036907 C 137.0192408887566,310.17075525462826 121.10675564472109,302.0832215002339 113.3343206080304,296.88409265812334 C 96.05640758727895,285.33047300898863 76.04763901309565,264.00879311103995 64.75660162871398,245.10287004881954 C 46.113260831246606,213.96061344910643 38.23579288865474,183.02842266119572 40.336451006679255,149.36537631985325 C 40.65154972438293,144.00869811889075 41.12419780093842,138.2318882943234 41.38678006569148,136.49884534695323 C 41.59684587749396,134.76580239958295 41.70187878339519,133.24282526401524 41.59684587749396,133.137792358114 C 41.071681347987834,132.56011137565727 39.12857258881519,135.1859340231879 37.23798028259313,139.0721515415332 C 25.42177836870536,163.22971989881492 24.003834139038815,194.52952585737987 33.299246311297196,223.99125596267342 C 39.33863840061761,243.00221193079503 49.94696189664131,262.4858159754722 63.44369030494869,279.29108091966816 C 69.43056594131849,286.74841723865507 80.77411977865074,298.3545533407405 88.38900545648954,304.9191099595671 C 113.64941932573407,326.5033721222686 141.85075456021292,339.6324853599217 176.5641299605677,346.03949261989646 C 185.01927888561625,347.56246975546424 194.57727332262772,348.08763428497036 232.28408654116737,348.92789753218017 C 245.3081668729193,349.24299624988373 257.75456622221435,349.71564432643936 260.0127736990907,350.0307430441429 C 265.36945190005315,350.7134569325009 271.72394270707724,352.7090821446243 276.7130057373854,355.2823883392042 C 283.12001299736016,358.6434413280434 283.06749654440955,358.5384084221422 280.02154227327406,360.1139020106606 C 278.60359804360746,360.79661589901843 276.24035766082994,361.7944285050802 274.7698969782128,362.214560128685 C 272.24910723658337,362.9497904699937 271.9865249718303,362.9497904699937 268.99308715364543,361.68939559917897 C 260.4854217756462,358.2233097044385 261.5882672876091,358.32834261033975 226.24469445184695,357.85569453378423 C 185.91205858577672,357.2780135513275 179.71511713760447,356.75284902182136 160.86171052833458,352.0263682562662 C 126.83104901633783,343.51870287826705 99.41746057611812,328.34144797554006 74.78724414228094,304.2889125241596 C 46.69094181370335,276.8228076309895 29.83316041655678,247.72869269635012 22.27079119166862,213.33041601369908 C 17.124178802508595,190.22317671542962 17.859409143817174,166.6432893406047 24.26641640379188,144.2187639306932 C 29.255479434100067,126.99336736289237 37.710628359148615,109.6104214362397 48.52901766697477,94.59071589236456 C 56.93165013907276,82.93206333732863 69.43056594131849,69.27778557016941 80.19643879619403,59.982373397911005 C 108.97545501312959,35.089574699320764 146.41968596691618,19.439671720038262 185.54444341512237,15.973585825297874 C 193.15932909296117,15.29087193693988 216.37160129713186,15.763520013495395 224.14403633382244,16.761332619557066 M 212.32783441993467,74.73949667703309 C 212.01273570223105,75.00207894178615 209.80704467830532,76.31499026555147 207.33877138962652,77.6804180422674 C 198.72607310572607,82.4068988078225 189.85079255707262,90.44191610926615 182.70855495578934,99.99991054627762 C 176.66916286646892,108.08744430067193 172.20526436566684,118.38066907899199 169.68447462403748,130.03932163402786 C 168.42407975322283,135.8161314585952 168.42407975322283,152.09623187328506 169.68447462403748,159.18595302161773 C 172.99301115992603,177.7767773661345 184.75669662086318,198.04812820507087 200.24905024129384,211.91247178403248 C 209.38691305470041,220.10503844432802 222.4635098394029,227.77244057511743 237.27314957147553,233.54925039968484 C 249.19438439126458,238.22321471228932 259.33005981073273,240.69148800096812 276.7130057373854,243.1072448366963 C 304.49420934825935,246.940945902091 315.89027963854227,249.82935081437464 328.9143599702941,256.23635807434937 C 339.365134107466,261.43548691646004 347.9253159384158,268.2626258000396 355.8553003339582,277.7155873311498 C 360.58178109951336,283.4398807027666 361.1069456290195,284.3851768558775 360.16164947590846,286.17073625619844 C 359.7940343052542,286.905966597507 359.21635332279743,287.48364757996376 358.95377105804437,287.48364757996376 C 358.6911887932913,287.48364757996376 355.4351687103533,284.54272621472944 351.7590170038104,280.97160741408777 C 339.4176505604166,269.0503725942988 326.8137018522696,262.1182008048179 310.00843690807363,258.0219174746702 C 301.6583208889263,256.0262922625469 296.6167414056675,255.2910619212383 278.7611474024593,253.3479531620657 C 261.5357508346585,251.50987730879424 252.9230525507581,250.19696598502892 245.62326559062296,248.35889013175753 C 204.87049810094777,238.01314890048687 174.83108701319748,212.01750468993376 163.8551483465195,177.67174446023327 C 160.65164471653213,167.64110194666634 159.86389792227294,162.7045553693088 159.86389792227294,151.46603443787777 C 159.81138146932233,140.22751350644663 160.49409535768035,135.0809011172867 163.27746736406277,125.62793958617644 C 169.26434300043258,105.4616216531413 183.07617012644363,87.71106055583428 199.1987211822816,79.36094453668696 C 204.87049810094777,76.47253962440328 213.8508115555025,73.2690359944159 212.32783441993467,74.73949667703309 M 162.3846876639024,84.87517209650125 C 162.1746218520999,85.24278726715553 160.38906245177907,87.81609346173556 158.498470145557,90.54694901516743 C 146.1571037021631,107.98241139477071 140.06519515989208,126.62575219223808 140.01267870694153,146.73955367232261 C 140.01267870694153,168.2712993820737 145.26432400200275,185.8643111205288 157.1855588217917,203.71990512373705 C 167.58381650601302,219.4223245559701 186.4372231152828,236.22758950016603 204.24030066554042,245.68055103127628 C 210.33220920781145,248.93657111421427 210.122143396009,249.4092191907698 203.55758677718245,246.9934623550416 C 187.80265089199872,241.21665253047425 175.09366927795054,232.28885552887013 161.85952313439628,217.7417980615505 C 154.82231843901417,210.07439593076109 149.99080476755785,202.82712542357658 145.05425819020024,192.69145000410842 C 140.85294195415128,184.02623526725742 138.33215221252192,177.04154702482592 136.12646118859612,167.4835525878145 C 134.70851695892964,161.54919340439525 134.65600050597902,160.49886434538305 134.65600050597902,149.36537631985325 C 134.65600050597902,135.55354919384214 135.338714394337,130.72203552238588 138.5422180243243,120.90145882062134 C 142.5859849015215,108.56009237722745 148.9929921614962,97.79421952235188 157.65820689834726,88.70887316189598 C 161.49190796374194,84.6651062846988 163.4350167229146,83.14212914913108 162.3846876639024,84.87517209650125 M 132.92295755860886,95.64104495137676 C 132.5028259350039,96.74389046333962 131.45249687599164,99.00209794021598 130.55971717583128,100.68262443463558 C 125.7282035043749,110.34565177754823 122.2096011566839,121.32159044422619 120.9492062858692,130.82706842828705 C 120.05642658570883,137.5491744059655 119.89887722685694,155.03715323851938 120.73914047406674,162.38945665160506 C 123.04986440389371,183.97371881430675 134.1308359764729,206.03062905356396 151.6713312619774,224.1488053215252 C 166.2183887292971,239.16851086540035 180.29279812006115,248.35889013175753 201.2993793003061,256.65648969795427 C 215.3212722381196,262.1707172577685 223.56635535136576,264.48144118759546 248.30160469110416,269.8906358415086 C 268.0477910005344,274.1444685305081 276.502939925583,276.35015955443384 284.1703420563724,279.1335315608163 C 297.5095211058279,284.0175616852233 310.638634343481,291.68496381601267 320.2491452334431,300.24514564696244 C 327.44389928767697,306.6521529069372 335.4789165891206,316.31518024984985 335.4789165891206,318.5733877267262 C 335.4789165891206,319.99133195639274 324.9231095460476,330.5471389994658 323.5576817693317,330.5471389994658 C 322.7174185221219,330.5471389994658 321.77212236901084,329.6543592993054 320.19662878049246,327.2386024635773 C 318.98875036262837,325.4530430632565 314.6824012206782,320.6740458447507 310.5861178905304,316.6302789675535 C 304.9668574248149,311.01101850183807 301.6583208889263,308.175130042505 296.82680721747,305.0241428654682 C 279.28631193196543,293.26045740453105 268.4154061711887,289.11165762143264 230.44601068789592,279.60617963737184 C 191.0061545219861,269.73308648265674 166.06083937044525,257.0766213215592 145.42187336085453,236.59520467082038 C 127.61879581059696,218.89716002646398 116.59034069096839,198.41574337572516 111.9163763783639,174.3106914713941 C 110.55094860164797,167.37851968191328 110.55094860164797,144.69141200724872 111.9163763783639,138.33692120022468 C 114.1745838552402,127.83363061010218 120.10894303865939,113.28657314278254 125.67568705142429,104.62135840593149 C 128.09144388715248,100.94520669938865 133.3430891822137,93.69793619220414 133.60567144696677,93.69793619220414 C 133.71070435286805,93.69793619220414 133.39560563516437,94.59071589236456 132.92295755860886,95.64104495137676 M 301.08063990646957,266.2144841349657 C 318.095970662468,269.6280535767555 329.07190932914597,275.19479758952036 339.4176505604166,285.5930552737417 C 344.30168068482357,290.5296018510992 350.65617149184766,298.7746849643454 350.0259740564403,299.352365946802 C 349.86842469758847,299.509915305654 347.0325362382554,297.0416420169752 343.67148324941616,293.8381383869878 C 334.11348881240474,284.8053084794825 328.651777705541,280.91909096113716 317.8859048506655,275.50989630722415 C 310.9537330611847,272.0438104124836 298.55985016484016,267.26481319397794 294.20098456993935,266.3195170408669 C 292.625490981421,266.00441832316324 291.36509611060626,265.5317702466077 291.36509611060626,265.32170443480527 C 291.36509611060626,264.5864740934967 294.4635668346924,264.84905635824975 301.08063990646957,266.2144841349657 M 150.2008705793603,323.9300659276887 C 168.6866620179759,331.54495160552744 202.03460964161468,338.94977147156374 217.6319961679465,338.94977147156374 C 219.2074897564649,338.94977147156374 220.4678846272796,339.1598372833662 220.4678846272796,339.47493600106986 C 220.4678846272796,340.57778151303273 198.25342502917061,339.6850018128723 187.64510153314689,338.16202467730466 C 180.45034747891305,337.0591791653418 172.6253959892718,335.1160704061691 166.4809709940501,332.85786292929276 C 158.39343723965584,329.86442511110795 143.32121524283008,322.14450652736787 145.57942271970637,322.14450652736787 C 145.73697207855827,322.14450652736787 147.83763019658272,322.93225332162706 150.2008705793603,323.9300659276887"
             id="i1" />
          <path
             d="M 185.54444341512237,29.155215515901546 C 146.99736694937292,32.306202692938285 114.33213321409204,46.95829306615917 88.91416998599567,72.42877274720615 C 64.54653581691156,96.84892336924091 52.52026809122134,124.78767633896663 52.415235185320086,157.13781135654384 C 52.3627187323695,194.37197649852797 68.38023688230626,226.617078610204 103.72380971806837,260.22760849859594 C 130.82229944058435,286.0131868973466 168.6866620179759,304.9191099595671 202.87487288882448,309.803140083974 C 211.33002181387303,310.95850204888745 220.0477530036747,311.6412159372454 220.94053270383517,311.1160514077393 C 221.83331240399554,310.64340333118366 220.94053270383517,310.3808210664306 208.9142649781449,307.22983388939394 C 189.27311157461588,302.1357379531845 165.32560902913661,292.0525789866671 149.67570604985417,282.2320022849025 C 125.7282035043749,267.26481319397794 103.0410958297104,243.7374422721036 90.01701549795854,220.47265361498236 C 84.03013986158874,209.75929721305747 77.83319841341648,193.4791967983676 74.68221123637974,180.03498484301085 C 73.21175055376258,173.8905598477892 73.21175055376258,173.4704282241843 73.21175055376258,158.0305910567043 C 73.2642670067132,141.17280965955771 73.42181636556501,139.64983252398994 76.36273773079932,129.30409129271933 C 85.18550182650222,98.42441695775929 109.50061954263572,69.43533492902122 138.96234964792927,54.62569519694853 C 160.49409535768035,43.80730588912243 191.16370388083794,38.13552897045625 214.58604189681103,40.70883516503625 C 231.07620812330333,42.49439456535711 250.19219699732616,48.27120438992449 264.05654057628783,55.728540708911396 C 280.9143219734344,64.81388706936738 294.8311820053467,78.04803321292164 305.80712067202467,95.32594623367308 C 309.9559204551231,101.89050285249962 310.2710191728267,102.2056015702033 310.2710191728267,100.36752571693191 C 310.2710191728267,97.00647272809269 302.7086499479385,81.25153684290902 298.1397185412353,75.2121447535886 C 294.7261490994455,70.64321334688529 286.0084179096438,61.50535053347875 280.3891574439283,56.5688039561212 C 266.36726450611485,44.27995396567792 244.62545298456126,34.66944307571583 222.5160262923535,30.993291369172965 C 209.91207758420654,28.89263325114848 196.835480799504,28.209919362790544 185.54444341512237,29.155215515901546"
             id="i2" />
          <path
             d="M 323.1375501457267,82.51193171372367 C 320.8268262158998,83.71981013158782 319.72398070393695,84.82265564355063 318.62113519197413,86.97583021452576 C 316.3629277150977,91.38721226237718 318.2535200213198,96.58634110448784 322.98000078687494,99.00209794021598 C 330.4373371058619,102.7832825526601 338.7874531250092,94.43316653351272 335.00626851256516,86.97583021452576 C 332.6430281297876,82.35438235487189 327.2338334758745,80.30624068979799 323.1375501457267,82.51193171372367"
             id="i3" />
          <path
             d="M 334.42858753010836,101.1552725111911 C 327.39138283472636,104.93645712363517 326.8137018522696,114.02180348409112 333.27322556519493,118.59073489079438 C 339.5751999192684,123.05463339159647 348.3979640149713,118.74828424964622 348.97564499742805,110.92333276000497 C 349.6058424328354,103.25593062921556 341.1506935077868,97.58415371054949 334.42858753010836,101.1552725111911"
             id="i4" />
          <path
             d="M 346.3498223498974,124.89270924486786 C 335.6889824009231,128.88395966911443 332.6430281297876,141.75049064201446 340.46797961942883,149.62795858460632 C 343.67148324941616,152.77894576164303 346.19227299104557,153.8292748206553 350.9712702095512,153.8292748206553 C 355.750267428057,153.8292748206553 358.2710571696864,152.77894576164303 361.4745607996738,149.62795858460632 C 364.62554797671044,146.42445495461894 365.6758770357227,143.90366521298952 365.6758770357227,139.12466799448381 C 365.6758770357227,135.7636150056446 365.4132947709696,134.45070368187928 364.4679986178587,132.7176607345091 C 362.94502148229094,129.8292558222254 360.2141659288591,127.09840026879354 357.378277469526,125.68045603912705 C 354.5949054631436,124.20999535650989 349.1331943562799,123.84238018585566 346.3498223498974,124.89270924486786"
             id="i5" />
          <path
             d="M 326.3935702286647,150.10060666116183 C 315.73273027969043,154.09185708540835 312.6867760085549,166.95838805830837 320.51172749819614,174.83585600090024 C 323.71523112818346,177.986843177937 326.23602086981293,179.0371722369492 331.0150180883186,179.0371722369492 C 335.7940153068243,179.0371722369492 338.31480504845376,177.986843177937 341.51830867844103,174.83585600090024 C 344.6692958554778,171.63235237091286 345.71962491449005,169.11156262928344 345.71962491449005,164.3325654107778 C 345.71962491449005,160.9715124219385 345.457042649737,159.6586010981732 344.51174649662596,157.92555815080303 C 342.98876936105825,155.03715323851938 340.2579138076264,152.30629768508751 337.4220253482933,150.88835345542097 C 334.63865334191087,149.4178927728038 329.17694223504714,149.05027760214958 326.3935702286647,150.10060666116183"
             id="i6" />
          <path
             d="M 358.42860652853824,160.07873272177815 C 347.76776657956395,164.06998314602473 344.7218123084284,176.93651411892475 352.5467637980696,184.81398206151655 C 355.750267428057,187.96496923855332 358.2710571696864,189.01529829756558 363.05005438819217,189.01529829756558 C 367.8290516066978,189.01529829756558 370.34984134832723,187.96496923855332 373.5533449783146,184.81398206151655 C 376.70433215535127,181.61047843152923 377.7546612143635,179.08968868989976 377.7546612143635,174.3106914713941 C 377.7546612143635,170.9496384825549 377.49207894961046,169.63672715878957 376.54678279649954,167.9036842114194 C 375.02380566093166,165.0152792991357 372.2929501074999,162.28442374570383 369.4570616481668,160.86647951603734 C 366.67368964178445,159.3960188334202 361.2119785349207,159.0284036627659 358.42860652853824,160.07873272177815"
             id="i7" />
        </g>
      </svg>
    </g>
  </g>
</svg>
