<svg xmlns="http://www.w3.org/2000/svg" xmlns:xlink="http://www.w3.org/1999/xlink" width="500" zoomAndPan="magnify" viewBox="0 0 375 374.999991" height="500" preserveAspectRatio="xMidYMid meet" version="1.0"><defs><g/></defs><path fill="#e0e0e0" d="M 376.347656 188.199219 C 376.347656 189.332031 376.328125 190.464844 376.304688 191.597656 C 376.304688 191.773438 376.304688 191.9375 376.292969 192.109375 C 370.722656 194.105469 364.75 195.53125 357.929688 195.53125 C 350.539062 195.53125 344.128906 193.855469 338.167969 191.597656 C 334.710938 190.289062 331.410156 188.796875 328.152344 187.316406 C 319.648438 183.457031 311.617188 179.804688 301.664062 179.78125 C 291.726562 179.792969 283.691406 183.445312 275.191406 187.304688 C 271.929688 188.785156 268.617188 190.289062 265.171875 191.585938 C 259.210938 193.84375 252.800781 195.523438 245.414062 195.523438 C 238.023438 195.523438 231.613281 193.84375 225.652344 191.585938 C 222.195312 190.28125 218.894531 188.785156 215.636719 187.304688 C 207.132812 183.445312 199.101562 179.792969 189.148438 179.773438 C 179.210938 179.78125 171.175781 183.433594 162.675781 187.292969 C 159.414062 188.773438 156.101562 190.28125 152.660156 191.578125 C 146.695312 193.832031 140.289062 195.511719 132.898438 195.511719 C 125.507812 195.511719 119.097656 193.832031 113.136719 191.578125 C 109.679688 190.269531 106.378906 188.773438 103.121094 187.292969 C 94.617188 183.433594 86.585938 179.78125 76.632812 179.761719 C 66.695312 179.773438 58.660156 183.421875 50.160156 187.28125 C 46.902344 188.765625 43.585938 190.269531 40.144531 191.566406 C 34.179688 193.820312 27.773438 195.5 20.382812 195.5 C 12.992188 195.5 6.582031 193.820312 0.621094 191.566406 C 0.425781 191.488281 0.238281 191.414062 0.0429688 191.347656 C 0.0234375 190.324219 0 189.265625 0 188.199219 C 0 186.421875 0.03125 184.65625 0.078125 182.902344 C 6.429688 185.582031 12.863281 187.664062 20.371094 187.664062 C 30.332031 187.664062 38.378906 184.011719 46.890625 180.144531 C 55.785156 176.109375 64.972656 171.925781 76.625 171.914062 C 88.285156 171.933594 97.472656 176.109375 106.367188 180.144531 C 114.878906 184.011719 122.925781 187.664062 132.886719 187.664062 C 142.847656 187.664062 150.890625 184.011719 159.40625 180.144531 C 168.300781 176.109375 177.488281 171.925781 189.140625 171.914062 C 200.800781 171.933594 209.988281 176.109375 218.882812 180.144531 C 227.394531 184.011719 235.441406 187.664062 245.402344 187.664062 C 255.363281 187.664062 263.40625 184.011719 271.921875 180.144531 C 280.816406 176.109375 290.003906 171.925781 301.652344 171.914062 C 313.316406 171.933594 322.503906 176.109375 331.398438 180.144531 C 339.910156 184.011719 347.957031 187.664062 357.917969 187.664062 C 364.675781 187.664062 370.539062 185.984375 376.273438 183.695312 C 376.328125 185.1875 376.347656 186.695312 376.347656 188.199219 Z M 331.410156 258.902344 C 322.515625 254.871094 313.328125 250.683594 301.664062 250.671875 C 290.011719 250.695312 280.824219 254.871094 271.929688 258.902344 C 263.417969 262.773438 255.375 266.421875 245.414062 266.421875 C 235.449219 266.421875 227.40625 262.773438 218.894531 258.902344 C 210 254.871094 200.8125 250.683594 189.148438 250.671875 C 177.5 250.695312 168.308594 254.871094 159.414062 258.902344 C 150.902344 262.773438 142.859375 266.421875 132.898438 266.421875 C 122.933594 266.421875 114.890625 262.773438 106.378906 258.902344 C 97.484375 254.871094 88.296875 250.683594 76.632812 250.671875 C 64.984375 250.695312 55.792969 254.871094 46.902344 258.902344 C 38.386719 262.773438 30.34375 266.421875 20.382812 266.421875 C 19.203125 266.421875 18.050781 266.367188 16.925781 266.269531 C 17.546875 267.644531 18.191406 269.007812 18.855469 270.359375 C 19.359375 271.394531 19.871094 272.417969 20.382812 273.441406 C 20.523438 273.726562 20.664062 274.007812 20.816406 274.292969 C 28.023438 274.226562 34.300781 272.582031 40.144531 270.367188 C 43.597656 269.0625 46.902344 267.566406 50.160156 266.085938 C 58.660156 262.226562 66.695312 258.574219 76.632812 258.566406 C 86.585938 258.574219 94.617188 262.226562 103.121094 266.097656 C 106.378906 267.578125 109.691406 269.070312 113.136719 270.378906 C 119.097656 272.636719 125.507812 274.3125 132.898438 274.3125 C 140.289062 274.3125 146.695312 272.636719 152.660156 270.378906 C 156.113281 269.070312 159.414062 267.578125 162.675781 266.097656 C 171.175781 262.238281 179.210938 258.585938 189.148438 258.574219 C 199.101562 258.585938 207.132812 262.238281 215.636719 266.105469 C 218.894531 267.589844 222.207031 269.082031 225.652344 270.390625 C 231.613281 272.648438 238.023438 274.324219 245.414062 274.324219 C 252.804688 274.324219 259.210938 272.648438 265.171875 270.390625 C 268.628906 269.082031 271.929688 267.589844 275.191406 266.105469 C 283.691406 262.25 291.726562 258.597656 301.664062 258.585938 C 311.617188 258.597656 319.648438 262.25 328.152344 266.117188 C 331.410156 267.601562 334.722656 269.09375 338.167969 270.402344 C 343.488281 272.417969 349.152344 273.964844 355.5625 274.28125 C 356.226562 272.996094 356.871094 271.710938 357.503906 270.402344 C 357.644531 270.105469 357.785156 269.8125 357.929688 269.519531 C 358.417969 268.492188 358.898438 267.457031 359.367188 266.421875 C 358.886719 266.445312 358.40625 266.457031 357.929688 266.457031 C 347.964844 266.421875 339.921875 262.773438 331.410156 258.902344 Z M 331.410156 243.152344 C 322.515625 239.121094 313.328125 234.933594 301.664062 234.921875 C 290.011719 234.945312 280.824219 239.121094 271.929688 243.152344 C 263.417969 247.023438 255.375 250.671875 245.414062 250.671875 C 235.449219 250.671875 227.40625 247.023438 218.894531 243.152344 C 210 239.121094 200.8125 234.933594 189.148438 234.921875 C 177.5 234.945312 168.308594 239.121094 159.414062 243.152344 C 150.902344 247.023438 142.859375 250.671875 132.898438 250.671875 C 122.933594 250.671875 114.890625 247.023438 106.378906 243.152344 C 97.484375 239.121094 88.296875 234.933594 76.632812 234.921875 C 64.984375 234.945312 55.792969 239.121094 46.902344 243.152344 C 38.386719 247.023438 30.34375 250.671875 20.382812 250.671875 C 16.773438 250.671875 13.40625 250.195312 10.191406 249.386719 C 11.195312 252.296875 12.261719 255.1875 13.40625 258.03125 C 15.640625 258.359375 17.960938 258.542969 20.382812 258.542969 C 32.054688 258.542969 41.253906 254.359375 50.160156 250.3125 C 58.660156 246.457031 66.695312 242.804688 76.632812 242.792969 C 86.585938 242.804688 94.617188 246.457031 103.121094 250.324219 C 112.023438 254.367188 121.234375 258.554688 132.898438 258.554688 C 144.570312 258.554688 153.769531 254.367188 162.675781 250.324219 C 171.175781 246.464844 179.210938 242.816406 189.148438 242.804688 C 199.101562 242.816406 207.132812 246.464844 215.636719 250.335938 C 224.539062 254.378906 233.75 258.566406 245.414062 258.566406 C 257.085938 258.566406 266.285156 254.378906 275.191406 250.335938 C 283.691406 246.476562 291.726562 242.824219 301.664062 242.816406 C 311.617188 242.824219 319.648438 246.476562 328.152344 250.347656 C 337.054688 254.390625 346.265625 258.574219 357.929688 258.574219 C 359.617188 258.574219 361.253906 258.476562 362.84375 258.3125 C 363.957031 255.535156 365.011719 252.722656 365.992188 249.890625 C 363.421875 250.402344 360.75 250.695312 357.929688 250.695312 C 347.964844 250.671875 339.921875 247.011719 331.410156 243.152344 Z M 331.410156 227.390625 C 322.515625 223.359375 313.328125 219.175781 301.664062 219.164062 C 290.011719 219.183594 280.824219 223.359375 271.929688 227.390625 C 263.417969 231.261719 255.375 234.914062 245.414062 234.914062 C 235.449219 234.914062 227.40625 231.261719 218.894531 227.390625 C 210 223.359375 200.8125 219.175781 189.148438 219.164062 C 177.5 219.183594 168.308594 223.359375 159.414062 227.390625 C 150.902344 231.261719 142.859375 234.914062 132.898438 234.914062 C 122.933594 234.914062 114.890625 231.261719 106.378906 227.390625 C 97.484375 223.359375 88.296875 219.175781 76.632812 219.164062 C 64.984375 219.183594 55.792969 223.359375 46.902344 227.390625 C 38.386719 231.261719 30.34375 234.914062 20.382812 234.914062 C 14.855469 234.914062 9.929688 233.789062 5.175781 232.132812 C 5.898438 235.152344 6.691406 238.140625 7.554688 241.09375 C 11.53125 242.140625 15.761719 242.792969 20.382812 242.792969 C 32.054688 242.792969 41.253906 238.609375 50.160156 234.5625 C 58.660156 230.707031 66.695312 227.054688 76.632812 227.042969 C 86.585938 227.054688 94.617188 230.707031 103.121094 234.574219 C 112.023438 238.617188 121.234375 242.804688 132.898438 242.804688 C 144.570312 242.804688 153.769531 238.617188 162.675781 234.574219 C 171.175781 230.714844 179.210938 227.066406 189.148438 227.054688 C 199.101562 227.066406 207.132812 230.714844 215.636719 234.585938 C 224.539062 238.628906 233.75 242.816406 245.414062 242.816406 C 257.085938 242.816406 266.285156 238.628906 275.191406 234.585938 C 283.691406 230.726562 291.726562 227.074219 301.664062 227.066406 C 311.617188 227.074219 319.648438 230.726562 328.152344 234.597656 C 337.054688 238.640625 346.265625 242.824219 357.929688 242.824219 C 361.742188 242.824219 365.285156 242.378906 368.640625 241.636719 C 369.492188 238.738281 370.289062 235.816406 371.007812 232.863281 C 366.910156 234.128906 362.636719 234.945312 357.929688 234.945312 C 347.964844 234.914062 339.921875 231.261719 331.410156 227.390625 Z M 331.410156 211.640625 C 322.515625 207.609375 313.328125 203.425781 301.664062 203.414062 C 290.011719 203.433594 280.824219 207.609375 271.929688 211.640625 C 263.417969 215.511719 255.375 219.164062 245.414062 219.164062 C 235.449219 219.164062 227.40625 215.511719 218.894531 211.640625 C 210 207.609375 200.8125 203.425781 189.148438 203.414062 C 177.5 203.433594 168.308594 207.609375 159.414062 211.640625 C 150.902344 215.511719 142.859375 219.164062 132.898438 219.164062 C 122.933594 219.164062 114.890625 215.511719 106.378906 211.640625 C 97.484375 207.609375 88.296875 203.425781 76.632812 203.414062 C 64.984375 203.433594 55.792969 207.609375 46.902344 211.640625 C 38.386719 215.511719 30.34375 219.164062 20.382812 219.164062 C 13.589844 219.164062 7.707031 217.460938 1.941406 215.164062 C 2.375 218.171875 2.878906 221.148438 3.445312 224.101562 C 8.609375 225.832031 14.136719 227.03125 20.382812 227.03125 C 32.054688 227.03125 41.253906 222.847656 50.160156 218.804688 C 58.660156 214.945312 66.695312 211.292969 76.632812 211.28125 C 86.585938 211.292969 94.617188 214.945312 103.121094 218.8125 C 112.023438 222.859375 121.234375 227.042969 132.898438 227.042969 C 144.570312 227.042969 153.769531 222.859375 162.675781 218.8125 C 171.175781 214.957031 179.210938 211.304688 189.148438 211.292969 C 199.101562 211.304688 207.132812 214.957031 215.636719 218.824219 C 224.539062 222.867188 233.75 227.054688 245.414062 227.054688 C 257.085938 227.054688 266.285156 222.867188 275.191406 218.824219 C 283.691406 214.964844 291.726562 211.316406 301.664062 211.304688 C 311.617188 211.316406 319.648438 214.964844 328.152344 218.835938 C 337.054688 222.878906 346.265625 227.066406 357.929688 227.066406 C 363.335938 227.066406 368.21875 226.160156 372.785156 224.796875 C 373.363281 221.886719 373.863281 218.945312 374.308594 215.992188 C 369.199219 217.875 363.914062 219.195312 357.9375 219.195312 C 347.964844 219.164062 339.921875 215.511719 331.410156 211.640625 Z M 331.410156 195.894531 C 328.140625 194.410156 324.828125 192.90625 321.371094 191.597656 C 315.421875 189.351562 309.035156 187.675781 301.664062 187.664062 C 294.296875 187.675781 287.921875 189.351562 281.96875 191.597656 C 278.515625 192.90625 275.203125 194.410156 271.929688 195.894531 C 263.417969 199.761719 255.375 203.414062 245.414062 203.414062 C 235.449219 203.414062 227.40625 199.761719 218.894531 195.894531 C 215.625 194.410156 212.3125 192.90625 208.855469 191.597656 C 202.90625 189.351562 196.519531 187.675781 189.148438 187.664062 C 181.78125 187.675781 175.40625 189.351562 169.453125 191.597656 C 166 192.90625 162.6875 194.410156 159.414062 195.894531 C 150.902344 199.761719 142.859375 203.414062 132.898438 203.414062 C 122.933594 203.414062 114.890625 199.761719 106.378906 195.894531 C 103.109375 194.410156 99.796875 192.90625 96.339844 191.597656 C 90.390625 189.351562 84.003906 187.675781 76.632812 187.664062 C 69.265625 187.675781 62.890625 189.351562 56.9375 191.597656 C 53.484375 192.90625 50.171875 194.410156 46.902344 195.894531 C 38.386719 199.761719 30.34375 203.414062 20.382812 203.414062 C 12.960938 203.414062 6.59375 201.386719 0.304688 198.75 C 0.46875 201.679688 0.6875 204.601562 0.980469 207.488281 C 6.84375 209.679688 13.132812 211.292969 20.382812 211.292969 C 32.054688 211.292969 41.253906 207.109375 50.160156 203.066406 C 58.660156 199.207031 66.695312 195.554688 76.632812 195.542969 C 86.585938 195.554688 94.617188 199.207031 103.121094 203.074219 C 112.023438 207.117188 121.234375 211.304688 132.898438 211.304688 C 144.570312 211.304688 153.769531 207.117188 162.675781 203.074219 C 171.175781 199.21875 179.210938 195.566406 189.148438 195.554688 C 199.101562 195.566406 207.132812 199.21875 215.636719 203.085938 C 224.539062 207.128906 233.75 211.316406 245.414062 211.316406 C 257.085938 211.316406 266.285156 207.128906 275.191406 203.085938 C 283.691406 199.226562 291.726562 195.578125 301.664062 195.566406 C 311.617188 195.578125 319.648438 199.226562 328.152344 203.097656 C 337.054688 207.140625 346.265625 211.328125 357.929688 211.328125 C 364.335938 211.328125 370.003906 210.0625 375.28125 208.253906 C 375.585938 205.386719 375.8125 202.496094 375.988281 199.597656 C 370.34375 201.820312 364.566406 203.445312 357.929688 203.445312 C 347.964844 203.414062 339.921875 199.761719 331.410156 195.894531 Z M 271.929688 337.664062 C 263.417969 341.53125 255.375 345.183594 245.414062 345.183594 C 235.449219 345.183594 227.40625 341.53125 218.894531 337.664062 C 210 333.628906 200.8125 329.445312 189.148438 329.433594 C 177.5 329.453125 168.308594 333.628906 159.414062 337.664062 C 150.902344 341.53125 142.859375 345.183594 132.898438 345.183594 C 122.933594 345.183594 114.890625 341.53125 106.378906 337.664062 C 97.484375 333.628906 88.296875 329.445312 76.632812 329.433594 C 72.613281 329.445312 68.886719 329.945312 65.363281 330.773438 C 68.035156 333.074219 70.769531 335.296875 73.5625 337.445312 C 74.5625 337.367188 75.589844 337.3125 76.632812 337.3125 C 86.585938 337.324219 94.617188 340.976562 103.121094 344.84375 C 106.378906 346.328125 109.691406 347.820312 113.136719 349.128906 C 119.097656 351.382812 125.507812 353.0625 132.898438 353.0625 C 140.289062 353.0625 146.695312 351.382812 152.660156 349.128906 C 156.113281 347.820312 159.414062 346.328125 162.675781 344.84375 C 171.175781 340.988281 179.210938 337.335938 189.148438 337.324219 C 199.101562 337.335938 207.132812 340.988281 215.636719 344.855469 C 218.894531 346.339844 222.207031 347.832031 225.652344 349.140625 C 231.613281 351.394531 238.023438 353.074219 245.414062 353.074219 C 252.804688 353.074219 259.210938 351.394531 265.171875 349.140625 C 268.628906 347.832031 271.929688 346.339844 275.191406 344.855469 C 283.691406 340.996094 291.726562 337.347656 301.664062 337.335938 C 302.089844 337.335938 302.503906 337.355469 302.917969 337.367188 C 305.808594 335.144531 308.628906 332.84375 311.386719 330.457031 C 308.324219 329.835938 305.097656 329.464844 301.664062 329.453125 C 290.011719 329.445312 280.824219 333.617188 271.929688 337.664062 Z M 271.929688 321.914062 C 263.417969 325.78125 255.375 329.433594 245.414062 329.433594 C 235.449219 329.433594 227.40625 325.78125 218.894531 321.914062 C 210 317.878906 200.8125 313.695312 189.148438 313.683594 C 177.5 313.707031 168.308594 317.878906 159.414062 321.914062 C 150.902344 325.78125 142.859375 329.433594 132.898438 329.433594 C 122.933594 329.433594 114.890625 325.78125 106.378906 321.914062 C 97.484375 317.878906 88.296875 313.695312 76.632812 313.683594 C 67.652344 313.695312 60.132812 316.191406 53.082031 319.175781 C 55.074219 321.226562 57.101562 323.230469 59.183594 325.191406 C 64.632812 323.089844 70.234375 321.5625 76.632812 321.554688 C 86.585938 321.5625 94.617188 325.214844 103.121094 329.085938 C 112.023438 333.128906 121.234375 337.3125 132.898438 337.3125 C 144.570312 337.3125 153.769531 333.128906 162.675781 329.085938 C 171.175781 325.226562 179.210938 321.574219 189.148438 321.5625 C 199.101562 321.574219 207.132812 325.226562 215.636719 329.09375 C 224.539062 333.140625 233.75 337.324219 245.414062 337.324219 C 257.085938 337.324219 266.285156 333.140625 275.191406 329.09375 C 283.691406 325.238281 291.726562 321.585938 301.664062 321.574219 C 307.519531 321.585938 312.71875 322.859375 317.730469 324.691406 C 319.8125 322.71875 321.851562 320.691406 323.835938 318.621094 C 317.1875 315.894531 310.070312 313.714844 301.664062 313.707031 C 290.011719 313.695312 280.824219 317.867188 271.929688 321.914062 Z M 301.664062 297.921875 C 290.011719 297.945312 280.824219 302.117188 271.929688 306.152344 C 263.417969 310.019531 255.375 313.671875 245.414062 313.671875 C 235.449219 313.671875 227.40625 310.019531 218.894531 306.152344 C 210 302.117188 200.8125 297.933594 189.148438 297.921875 C 177.5 297.945312 168.308594 302.117188 159.414062 306.152344 C 150.902344 310.019531 142.859375 313.671875 132.898438 313.671875 C 122.933594 313.671875 114.890625 310.019531 106.378906 306.152344 C 97.484375 302.117188 88.296875 297.933594 76.632812 297.921875 C 64.984375 297.945312 55.792969 302.117188 46.902344 306.152344 C 45.59375 306.75 44.285156 307.339844 42.988281 307.90625 C 44.730469 310.019531 46.53125 312.09375 48.371094 314.128906 C 48.972656 313.859375 49.570312 313.585938 50.160156 313.324219 C 58.660156 309.464844 66.695312 305.8125 76.632812 305.804688 C 86.585938 305.8125 94.617188 309.464844 103.121094 313.335938 C 112.023438 317.378906 121.234375 321.5625 132.898438 321.5625 C 144.570312 321.5625 153.769531 317.378906 162.675781 313.335938 C 171.175781 309.476562 179.210938 305.824219 189.148438 305.8125 C 199.101562 305.824219 207.132812 309.476562 215.636719 313.34375 C 224.539062 317.390625 233.75 321.574219 245.414062 321.574219 C 257.085938 321.574219 266.285156 317.390625 275.191406 313.34375 C 283.691406 309.488281 291.726562 305.835938 301.664062 305.824219 C 311.617188 305.835938 319.648438 309.488281 328.152344 313.355469 C 328.28125 313.410156 328.414062 313.476562 328.542969 313.53125 C 330.363281 311.492188 332.152344 309.410156 333.875 307.296875 C 333.054688 306.925781 332.226562 306.554688 331.398438 306.183594 C 322.515625 302.117188 313.328125 297.945312 301.664062 297.921875 Z M 301.664062 282.171875 C 290.011719 282.195312 280.824219 286.371094 271.929688 290.402344 C 263.417969 294.269531 255.375 297.921875 245.414062 297.921875 C 235.449219 297.921875 227.40625 294.269531 218.894531 290.402344 C 210 286.371094 200.8125 282.183594 189.148438 282.171875 C 177.5 282.195312 168.308594 286.371094 159.414062 290.402344 C 150.902344 294.269531 142.859375 297.921875 132.898438 297.921875 C 122.933594 297.921875 114.890625 294.269531 106.378906 290.402344 C 97.484375 286.371094 88.296875 282.183594 76.632812 282.171875 C 64.984375 282.195312 55.792969 286.371094 46.902344 290.402344 C 42.507812 292.398438 38.234375 294.335938 33.753906 295.742188 C 35.335938 298 36.960938 300.222656 38.628906 302.414062 C 42.628906 300.984375 46.421875 299.273438 50.148438 297.574219 C 58.648438 293.714844 66.683594 290.0625 76.625 290.054688 C 86.574219 290.0625 94.609375 293.714844 103.109375 297.585938 C 112.015625 301.628906 121.222656 305.8125 132.886719 305.8125 C 144.558594 305.8125 153.757812 301.628906 162.664062 297.585938 C 171.164062 293.726562 179.199219 290.074219 189.140625 290.0625 C 199.089844 290.074219 207.121094 293.726562 215.625 297.597656 C 224.53125 301.640625 233.738281 305.824219 245.402344 305.824219 C 257.074219 305.824219 266.273438 301.640625 275.179688 297.597656 C 283.679688 293.738281 291.714844 290.085938 301.652344 290.074219 C 311.605469 290.085938 319.636719 293.738281 328.140625 297.605469 C 331.398438 299.089844 334.691406 300.582031 338.136719 301.878906 C 339.78125 299.699219 341.382812 297.488281 342.941406 295.242188 C 339.039062 293.890625 335.269531 292.191406 331.398438 290.425781 C 322.515625 286.371094 313.328125 282.195312 301.664062 282.171875 Z M 321.371094 270.359375 C 315.421875 268.113281 309.035156 266.433594 301.664062 266.421875 C 294.296875 266.433594 287.921875 268.113281 281.96875 270.359375 C 278.515625 271.664062 275.203125 273.171875 271.929688 274.652344 C 263.417969 278.523438 255.375 282.171875 245.414062 282.171875 C 235.449219 282.171875 227.40625 278.523438 218.894531 274.652344 C 215.625 273.171875 212.3125 271.664062 208.855469 270.359375 C 202.90625 268.113281 196.519531 266.433594 189.148438 266.421875 C 181.78125 266.433594 175.40625 268.113281 169.453125 270.359375 C 166 271.664062 162.6875 273.171875 159.414062 274.652344 C 150.902344 278.523438 142.859375 282.171875 132.898438 282.171875 C 122.933594 282.171875 114.890625 278.523438 106.378906 274.652344 C 103.109375 273.171875 99.796875 271.664062 96.339844 270.359375 C 90.390625 268.113281 84.003906 266.433594 76.632812 266.421875 C 69.265625 266.433594 62.890625 268.113281 56.9375 270.359375 C 53.484375 271.664062 50.171875 273.171875 46.902344 274.652344 C 39.730469 277.910156 32.882812 281.007812 24.960938 281.902344 C 26.375 284.375 27.859375 286.804688 29.386719 289.191406 C 37.027344 287.765625 43.675781 284.757812 50.160156 281.8125 C 58.660156 277.953125 66.695312 274.304688 76.632812 274.292969 C 86.585938 274.304688 94.617188 277.953125 103.121094 281.824219 C 112.023438 285.867188 121.234375 290.054688 132.898438 290.054688 C 144.570312 290.054688 153.769531 285.867188 162.675781 281.824219 C 171.175781 277.964844 179.210938 274.316406 189.148438 274.304688 C 199.101562 274.316406 207.132812 277.964844 215.636719 281.835938 C 224.539062 285.878906 233.75 290.0625 245.414062 290.0625 C 257.085938 290.0625 266.285156 285.878906 275.191406 281.835938 C 283.691406 277.976562 291.726562 274.324219 301.664062 274.316406 C 311.617188 274.324219 319.648438 277.976562 328.152344 281.847656 C 334.132812 284.558594 340.269531 287.339844 347.179688 288.875 C 348.683594 286.511719 350.136719 284.113281 351.53125 281.683594 C 344.359375 280.550781 338.027344 277.683594 331.410156 274.675781 C 328.140625 273.171875 324.835938 271.664062 321.371094 270.359375 Z M 271.929688 353.410156 C 263.417969 357.28125 255.375 360.933594 245.414062 360.933594 C 235.449219 360.933594 227.40625 357.28125 218.894531 353.410156 C 215.625 351.929688 212.3125 350.425781 208.855469 349.117188 C 202.90625 346.871094 196.519531 345.195312 189.148438 345.183594 C 181.78125 345.195312 175.40625 346.871094 169.453125 349.117188 C 166 350.425781 162.6875 351.929688 159.414062 353.410156 C 150.902344 357.28125 142.859375 360.933594 132.898438 360.933594 C 122.933594 360.933594 114.890625 357.28125 106.378906 353.410156 C 103.109375 351.929688 99.796875 350.425781 96.339844 349.117188 C 92.984375 347.84375 89.472656 346.761719 85.734375 346.054688 C 87.335938 347.101562 88.949219 348.125 90.585938 349.117188 C 103.71875 357.105469 117.910156 363.515625 132.910156 368.117188 C 133.628906 368.332031 134.347656 368.550781 135.066406 368.757812 C 145.726562 368.277344 154.335938 364.375 162.6875 360.582031 C 171.1875 356.726562 179.21875 353.074219 189.160156 353.0625 C 199.113281 353.074219 207.144531 356.726562 215.644531 360.59375 C 223.570312 364.191406 231.734375 367.898438 241.664062 368.660156 C 242.929688 368.289062 244.179688 367.910156 245.421875 367.503906 C 259.691406 362.960938 273.21875 356.757812 285.785156 349.128906 C 287.09375 348.332031 288.390625 347.527344 289.675781 346.699219 C 287.003906 347.351562 284.453125 348.191406 281.980469 349.128906 C 278.515625 350.425781 275.203125 351.929688 271.929688 353.410156 Z M 162.675781 14.035156 C 171.175781 10.175781 179.210938 6.523438 189.148438 6.515625 C 199.101562 6.523438 207.132812 10.175781 215.636719 14.046875 C 224.539062 18.089844 233.75 22.273438 245.414062 22.273438 C 253.71875 22.273438 260.769531 20.148438 267.355469 17.480469 C 263.820312 15.832031 260.226562 14.296875 256.574219 12.867188 C 253.054688 13.816406 249.390625 14.40625 245.414062 14.40625 C 235.449219 14.40625 227.40625 10.753906 218.894531 6.882812 C 213.792969 4.5625 208.582031 2.207031 202.871094 0.617188 C 198.023438 0.226562 193.117188 0.0273438 188.167969 0.0273438 C 184.101562 0.0273438 180.058594 0.171875 176.058594 0.433594 C 170.097656 2.023438 164.703125 4.476562 159.414062 6.875 C 150.902344 10.742188 142.859375 14.394531 132.898438 14.394531 C 128.492188 14.394531 124.460938 13.675781 120.601562 12.542969 C 116.984375 13.9375 113.421875 15.429688 109.910156 17.042969 C 116.800781 19.921875 124.15625 22.265625 132.898438 22.265625 C 144.558594 22.265625 153.769531 18.078125 162.675781 14.035156 Z M 189.148438 360.933594 C 177.5 360.953125 168.308594 365.128906 159.414062 369.160156 C 156.660156 370.414062 153.945312 371.648438 151.207031 372.738281 C 155.9375 373.675781 160.734375 374.4375 165.585938 375.027344 C 173.050781 371.691406 180.355469 368.824219 189.148438 368.8125 C 197.792969 368.824219 204.996094 371.582031 212.320312 374.839844 C 217.097656 374.230469 221.804688 373.433594 226.457031 372.476562 C 223.941406 371.449219 221.433594 370.316406 218.894531 369.160156 C 210 365.128906 200.8125 360.953125 189.148438 360.933594 Z M 113.136719 34.078125 C 119.097656 36.335938 125.507812 38.011719 132.898438 38.011719 C 140.289062 38.011719 146.695312 36.335938 152.660156 34.078125 C 156.113281 32.769531 159.414062 31.277344 162.675781 29.796875 C 171.175781 25.9375 179.210938 22.285156 189.148438 22.273438 C 199.101562 22.285156 207.132812 25.9375 215.636719 29.804688 C 218.894531 31.289062 222.207031 32.78125 225.652344 34.089844 C 231.613281 36.347656 238.023438 38.023438 245.414062 38.023438 C 252.804688 38.023438 259.210938 36.347656 265.171875 34.089844 C 268.628906 32.78125 271.929688 31.289062 275.191406 29.804688 C 278.066406 28.5 280.878906 27.222656 283.746094 26.101562 C 280.878906 24.410156 277.96875 22.785156 275.015625 21.25 C 273.980469 21.707031 272.957031 22.175781 271.941406 22.632812 C 263.429688 26.503906 255.386719 30.15625 245.421875 30.15625 C 235.460938 30.15625 227.417969 26.503906 218.90625 22.632812 C 210.011719 18.601562 200.824219 14.417969 189.160156 14.40625 C 177.507812 14.425781 168.320312 18.601562 159.425781 22.632812 C 150.914062 26.503906 142.871094 30.15625 132.910156 30.15625 C 122.945312 30.15625 114.902344 26.503906 106.390625 22.632812 C 105.015625 22.011719 103.644531 21.390625 102.25 20.769531 C 99.25 22.316406 96.296875 23.941406 93.398438 25.640625 C 96.667969 26.875 99.859375 28.324219 103.132812 29.804688 C 106.378906 31.277344 109.679688 32.769531 113.136719 34.078125 Z M 76.625 85.273438 C 86.574219 85.285156 94.609375 88.9375 103.109375 92.804688 C 112.015625 96.847656 121.222656 101.035156 132.886719 101.035156 C 144.558594 101.035156 153.757812 96.847656 162.664062 92.804688 C 171.164062 88.945312 179.199219 85.296875 189.140625 85.285156 C 199.089844 85.296875 207.121094 88.945312 215.625 92.816406 C 224.53125 96.859375 233.738281 101.046875 245.402344 101.046875 C 257.074219 101.046875 266.273438 96.859375 275.179688 92.816406 C 283.679688 88.957031 291.714844 85.304688 301.652344 85.296875 C 311.605469 85.304688 319.636719 88.957031 328.140625 92.828125 C 336.261719 96.511719 344.632812 100.304688 354.898438 100.945312 C 353.382812 98.058594 351.792969 95.214844 350.136719 92.421875 C 343.53125 91.160156 337.589844 88.46875 331.398438 85.65625 C 322.503906 81.621094 313.316406 77.4375 301.652344 77.425781 C 290.003906 77.449219 280.8125 81.621094 271.921875 85.65625 C 263.40625 89.523438 255.363281 93.175781 245.402344 93.175781 C 235.441406 93.175781 227.394531 89.523438 218.882812 85.65625 C 209.988281 81.621094 200.800781 77.4375 189.140625 77.425781 C 177.488281 77.449219 168.300781 81.621094 159.40625 85.65625 C 150.890625 89.523438 142.847656 93.175781 132.886719 93.175781 C 122.925781 93.175781 114.878906 89.523438 106.367188 85.65625 C 97.484375 81.589844 88.285156 77.414062 76.625 77.394531 C 64.984375 77.414062 55.785156 81.589844 46.902344 85.632812 C 40.042969 88.75 33.484375 91.726562 25.984375 92.761719 C 24.394531 95.464844 22.855469 98.210938 21.394531 101.011719 C 32.578125 100.773438 41.515625 96.730469 50.148438 92.804688 C 58.660156 88.9375 66.695312 85.285156 76.625 85.273438 Z M 76.625 69.523438 C 86.574219 69.535156 94.609375 73.1875 103.109375 77.054688 C 112.015625 81.097656 121.222656 85.285156 132.886719 85.285156 C 144.558594 85.285156 153.757812 81.097656 162.664062 77.054688 C 171.164062 73.195312 179.199219 69.546875 189.140625 69.535156 C 199.089844 69.546875 207.121094 73.195312 215.625 77.066406 C 224.53125 81.109375 233.738281 85.296875 245.402344 85.296875 C 257.074219 85.296875 266.273438 81.109375 275.179688 77.066406 C 283.679688 73.207031 291.714844 69.554688 301.652344 69.546875 C 311.605469 69.554688 319.636719 73.207031 328.140625 77.078125 C 333.339844 79.429688 338.636719 81.839844 344.46875 83.433594 C 341.851562 79.53125 339.09375 75.738281 336.195312 72.050781 C 334.601562 71.355469 333 70.636719 331.386719 69.90625 C 322.492188 65.871094 313.304688 61.6875 301.644531 61.675781 C 289.992188 61.699219 280.804688 65.871094 271.910156 69.90625 C 263.398438 73.773438 255.351562 77.425781 245.390625 77.425781 C 235.429688 77.425781 227.386719 73.773438 218.871094 69.90625 C 209.980469 65.871094 200.789062 61.6875 189.128906 61.675781 C 177.476562 61.699219 168.289062 65.871094 159.394531 69.90625 C 150.882812 73.773438 142.835938 77.425781 132.875 77.425781 C 122.914062 77.425781 114.871094 73.773438 106.355469 69.90625 C 97.464844 65.871094 88.273438 61.6875 76.613281 61.675781 C 64.960938 61.699219 55.773438 65.871094 46.878906 69.90625 C 44.296875 71.082031 41.757812 72.226562 39.183594 73.273438 C 36.492188 76.761719 33.910156 80.347656 31.46875 84.019531 C 38.234375 82.472656 44.25 79.746094 50.136719 77.078125 C 58.660156 73.1875 66.695312 69.535156 76.625 69.523438 Z M 76.625 53.773438 C 86.574219 53.785156 94.609375 57.4375 103.109375 61.304688 C 112.015625 65.347656 121.222656 69.535156 132.886719 69.535156 C 144.558594 69.535156 153.757812 65.347656 162.664062 61.304688 C 171.164062 57.449219 179.199219 53.796875 189.140625 53.785156 C 199.089844 53.796875 207.121094 57.449219 215.625 61.316406 C 224.53125 65.359375 233.738281 69.546875 245.402344 69.546875 C 257.074219 69.546875 266.273438 65.359375 275.179688 61.316406 C 283.679688 57.457031 291.714844 53.808594 301.652344 53.796875 C 310.898438 53.808594 318.484375 56.957031 326.332031 60.5 C 322.027344 55.84375 317.492188 51.410156 312.738281 47.210938 C 309.273438 46.417969 305.609375 45.925781 301.652344 45.925781 C 290.003906 45.949219 280.816406 50.121094 271.921875 54.15625 C 263.40625 58.023438 255.363281 61.675781 245.402344 61.675781 C 235.441406 61.675781 227.394531 58.023438 218.882812 54.15625 C 209.988281 50.121094 200.800781 45.9375 189.140625 45.925781 C 177.488281 45.949219 168.300781 50.121094 159.40625 54.15625 C 150.890625 58.023438 142.847656 61.675781 132.886719 61.675781 C 122.925781 61.675781 114.878906 58.023438 106.367188 54.15625 C 97.484375 50.089844 88.285156 45.914062 76.625 45.894531 C 71.621094 45.90625 67.074219 46.679688 62.8125 47.878906 C 57.832031 52.335938 53.082031 57.042969 48.601562 62.003906 C 49.125 61.761719 49.636719 61.535156 50.148438 61.292969 C 58.660156 57.4375 66.695312 53.785156 76.625 53.773438 Z M 103.109375 45.546875 C 112.015625 49.589844 121.222656 53.773438 132.886719 53.773438 C 144.558594 53.773438 153.757812 49.589844 162.664062 45.546875 C 171.164062 41.6875 179.199219 38.035156 189.140625 38.023438 C 199.089844 38.035156 207.121094 41.6875 215.625 45.554688 C 224.53125 49.601562 233.738281 53.785156 245.402344 53.785156 C 257.074219 53.785156 266.273438 49.601562 275.179688 45.554688 C 283.648438 41.707031 291.660156 38.078125 301.546875 38.035156 C 299.769531 36.695312 297.960938 35.375 296.140625 34.089844 C 294.722656 33.097656 293.292969 32.128906 291.84375 31.167969 C 288.378906 31.878906 285.109375 32.902344 281.957031 34.089844 C 278.503906 35.398438 275.191406 36.902344 271.921875 38.382812 C 263.40625 42.253906 255.363281 45.90625 245.402344 45.90625 C 235.441406 45.90625 227.394531 42.253906 218.882812 38.382812 C 215.613281 36.902344 212.300781 35.398438 208.84375 34.089844 C 202.894531 31.84375 196.507812 30.164062 189.140625 30.15625 C 181.769531 30.164062 175.394531 31.84375 169.445312 34.089844 C 165.988281 35.398438 162.675781 36.902344 159.40625 38.382812 C 150.890625 42.253906 142.847656 45.90625 132.886719 45.90625 C 122.925781 45.90625 114.878906 42.253906 106.367188 38.382812 C 103.097656 36.902344 99.785156 35.398438 96.328125 34.089844 C 92.734375 32.726562 88.972656 31.570312 84.929688 30.875 C 83.335938 31.921875 81.757812 32.988281 80.199219 34.089844 C 78.34375 35.386719 76.523438 36.714844 74.726562 38.078125 C 75.347656 38.046875 75.980469 38.035156 76.625 38.035156 C 86.574219 38.035156 94.609375 41.6875 103.109375 45.546875 Z M 50.148438 171.554688 C 58.648438 167.695312 66.683594 164.042969 76.625 164.035156 C 86.574219 164.042969 94.609375 167.695312 103.109375 171.566406 C 112.015625 175.609375 121.222656 179.792969 132.886719 179.792969 C 144.558594 179.792969 153.757812 175.609375 162.664062 171.566406 C 171.164062 167.707031 179.199219 164.054688 189.140625 164.042969 C 199.089844 164.054688 207.121094 167.707031 215.625 171.574219 C 224.53125 175.621094 233.738281 179.804688 245.402344 179.804688 C 257.074219 179.804688 266.273438 175.621094 275.179688 171.574219 C 283.679688 167.71875 291.714844 164.066406 301.652344 164.054688 C 311.605469 164.066406 319.636719 167.71875 328.140625 171.585938 C 337.046875 175.628906 346.253906 179.816406 357.917969 179.816406 C 364.609375 179.816406 370.484375 178.441406 375.957031 176.503906 C 375.792969 173.765625 375.574219 171.050781 375.292969 168.359375 C 369.875 170.441406 364.28125 171.9375 357.917969 171.9375 C 347.957031 171.9375 339.910156 168.285156 331.398438 164.414062 C 322.503906 160.382812 313.316406 156.195312 301.652344 156.1875 C 290.003906 156.207031 280.816406 160.382812 271.921875 164.414062 C 263.40625 168.285156 255.363281 171.9375 245.402344 171.9375 C 235.441406 171.9375 227.394531 168.285156 218.882812 164.414062 C 209.988281 160.382812 200.800781 156.195312 189.140625 156.1875 C 177.488281 156.207031 168.300781 160.382812 159.40625 164.414062 C 150.890625 168.285156 142.847656 171.9375 132.886719 171.9375 C 122.925781 171.9375 114.878906 168.285156 106.367188 164.414062 C 97.472656 160.382812 88.285156 156.195312 76.625 156.1875 C 64.972656 156.207031 55.785156 160.382812 46.890625 164.414062 C 38.378906 168.285156 30.332031 171.9375 20.371094 171.9375 C 13.265625 171.9375 7.140625 170.070312 1.121094 167.609375 C 0.828125 170.324219 0.589844 173.046875 0.414062 175.792969 C 6.429688 178.09375 12.894531 179.804688 20.371094 179.804688 C 32.042969 179.78125 41.242188 175.597656 50.148438 171.554688 Z M 50.148438 155.804688 C 58.648438 151.945312 66.683594 148.292969 76.625 148.285156 C 86.574219 148.292969 94.609375 151.945312 103.109375 155.816406 C 112.015625 159.859375 121.222656 164.042969 132.886719 164.042969 C 144.558594 164.042969 153.757812 159.859375 162.664062 155.816406 C 171.164062 151.957031 179.199219 148.304688 189.140625 148.292969 C 199.089844 148.304688 207.121094 151.957031 215.625 155.824219 C 224.53125 159.871094 233.738281 164.054688 245.402344 164.054688 C 257.074219 164.054688 266.273438 159.871094 275.179688 155.824219 C 283.679688 151.96875 291.714844 148.316406 301.652344 148.304688 C 311.605469 148.316406 319.636719 151.96875 328.140625 155.835938 C 337.046875 159.878906 346.253906 164.066406 357.917969 164.066406 C 363.976562 164.066406 369.371094 162.933594 374.398438 161.285156 C 374.015625 158.648438 373.589844 156.023438 373.101562 153.417969 C 368.359375 155.074219 363.433594 156.195312 357.917969 156.195312 C 347.957031 156.195312 339.910156 152.546875 331.398438 148.675781 C 322.503906 144.644531 313.316406 140.457031 301.652344 140.445312 C 290.003906 140.46875 280.816406 144.644531 271.921875 148.675781 C 263.40625 152.546875 255.363281 156.195312 245.402344 156.195312 C 235.441406 156.195312 227.394531 152.546875 218.882812 148.675781 C 209.988281 144.644531 200.800781 140.457031 189.140625 140.445312 C 177.488281 140.46875 168.300781 144.644531 159.40625 148.675781 C 150.890625 152.546875 142.847656 156.195312 132.886719 156.195312 C 122.925781 156.195312 114.878906 152.546875 106.367188 148.675781 C 97.472656 144.644531 88.285156 140.457031 76.625 140.445312 C 64.972656 140.46875 55.785156 144.644531 46.890625 148.675781 C 38.378906 152.546875 30.332031 156.195312 20.371094 156.195312 C 14.148438 156.195312 8.664062 154.769531 3.355469 152.753906 C 2.855469 155.367188 2.410156 157.996094 2.015625 160.644531 C 7.585938 162.636719 13.558594 164.066406 20.371094 164.066406 C 32.042969 164.035156 41.242188 159.847656 50.148438 155.804688 Z M 50.148438 140.054688 C 58.648438 136.195312 66.683594 132.542969 76.625 132.535156 C 86.574219 132.542969 94.609375 136.195312 103.109375 140.066406 C 112.015625 144.109375 121.222656 148.292969 132.886719 148.292969 C 144.558594 148.292969 153.757812 144.109375 162.664062 140.066406 C 171.164062 136.207031 179.199219 132.554688 189.140625 132.542969 C 199.089844 132.554688 207.121094 136.207031 215.625 140.078125 C 224.53125 144.121094 233.738281 148.304688 245.402344 148.304688 C 257.074219 148.304688 266.273438 144.121094 275.179688 140.078125 C 283.679688 136.21875 291.714844 132.566406 301.652344 132.554688 C 311.605469 132.566406 319.636719 136.21875 328.140625 140.085938 C 337.046875 144.132812 346.253906 148.316406 357.917969 148.316406 C 362.886719 148.316406 367.410156 147.554688 371.652344 146.367188 C 371.0625 143.792969 370.417969 141.253906 369.734375 138.726562 C 366.015625 139.769531 362.136719 140.4375 357.917969 140.4375 C 347.957031 140.4375 339.910156 136.785156 331.398438 132.914062 C 322.503906 128.882812 313.316406 124.695312 301.652344 124.6875 C 290.003906 124.707031 280.816406 128.882812 271.921875 132.914062 C 263.40625 136.785156 255.363281 140.4375 245.402344 140.4375 C 235.441406 140.4375 227.394531 136.785156 218.882812 132.914062 C 209.988281 128.882812 200.800781 124.695312 189.140625 124.6875 C 177.488281 124.707031 168.300781 128.882812 159.40625 132.914062 C 150.890625 136.785156 142.847656 140.4375 132.886719 140.4375 C 122.925781 140.4375 114.878906 136.785156 106.367188 132.914062 C 97.472656 128.882812 88.285156 124.695312 76.625 124.6875 C 64.972656 124.707031 55.785156 128.882812 46.890625 132.914062 C 38.378906 136.785156 30.332031 140.4375 20.371094 140.4375 C 15.457031 140.4375 11.007812 139.542969 6.734375 138.179688 C 6.039062 140.707031 5.382812 143.25 4.796875 145.820312 C 9.570312 147.3125 14.671875 148.304688 20.371094 148.304688 C 32.042969 148.285156 41.242188 144.097656 50.148438 140.054688 Z M 50.148438 124.304688 C 58.648438 120.445312 66.683594 116.796875 76.625 116.785156 C 86.574219 116.796875 94.609375 120.445312 103.109375 124.316406 C 112.015625 128.359375 121.222656 132.542969 132.886719 132.542969 C 144.558594 132.542969 153.757812 128.359375 162.664062 124.316406 C 171.164062 120.457031 179.199219 116.804688 189.140625 116.796875 C 199.089844 116.804688 207.121094 120.457031 215.625 124.328125 C 224.53125 128.371094 233.738281 132.554688 245.402344 132.554688 C 257.074219 132.554688 266.273438 128.371094 275.179688 124.328125 C 283.679688 120.46875 291.714844 116.816406 301.652344 116.804688 C 311.605469 116.816406 319.636719 120.46875 328.140625 124.335938 C 337.046875 128.382812 346.253906 132.566406 357.917969 132.566406 C 361.363281 132.566406 364.578125 132.195312 367.640625 131.585938 C 366.84375 129.058594 365.992188 126.539062 365.089844 124.054688 C 362.789062 124.457031 360.414062 124.6875 357.917969 124.6875 C 347.957031 124.6875 339.910156 121.035156 331.398438 117.164062 C 328.128906 115.683594 324.816406 114.179688 321.359375 112.871094 C 315.410156 110.625 309.023438 108.949219 301.65625 108.9375 C 294.285156 108.949219 287.910156 110.625 281.957031 112.871094 C 278.503906 114.179688 275.191406 115.683594 271.921875 117.164062 C 263.40625 121.035156 255.363281 124.6875 245.402344 124.6875 C 235.441406 124.6875 227.394531 121.035156 218.882812 117.164062 C 215.613281 115.683594 212.300781 114.179688 208.84375 112.871094 C 202.894531 110.625 196.507812 108.949219 189.140625 108.9375 C 181.769531 108.949219 175.394531 110.625 169.445312 112.871094 C 165.988281 114.179688 162.675781 115.683594 159.40625 117.164062 C 150.894531 121.035156 142.847656 124.6875 132.886719 124.6875 C 122.925781 124.6875 114.878906 121.035156 106.367188 117.164062 C 103.097656 115.683594 99.785156 114.179688 96.328125 112.871094 C 90.378906 110.625 83.992188 108.949219 76.625 108.9375 C 69.253906 108.949219 62.878906 110.625 56.929688 112.871094 C 53.472656 114.179688 50.160156 115.683594 46.890625 117.164062 C 38.378906 121.035156 30.332031 124.6875 20.371094 124.6875 C 17.199219 124.6875 14.222656 124.316406 11.367188 123.683594 C 10.464844 126.15625 9.625 128.652344 8.816406 131.171875 C 12.425781 132.03125 16.242188 132.554688 20.371094 132.554688 C 32.042969 132.535156 41.242188 128.347656 50.148438 124.304688 Z M 40.132812 112.839844 C 43.585938 111.53125 46.890625 110.039062 50.148438 108.554688 C 58.648438 104.695312 66.683594 101.046875 76.625 101.035156 C 86.574219 101.046875 94.609375 104.695312 103.109375 108.566406 C 106.367188 110.046875 109.679688 111.542969 113.125 112.847656 C 119.085938 115.105469 125.496094 116.785156 132.886719 116.785156 C 140.277344 116.785156 146.683594 115.105469 152.648438 112.847656 C 156.101562 111.542969 159.40625 110.046875 162.664062 108.566406 C 171.164062 104.707031 179.199219 101.054688 189.140625 101.046875 C 199.089844 101.054688 207.121094 104.707031 215.625 108.578125 C 218.882812 110.058594 222.195312 111.550781 225.640625 112.859375 C 231.601562 115.117188 238.011719 116.796875 245.402344 116.796875 C 252.792969 116.796875 259.199219 115.117188 265.164062 112.859375 C 268.617188 111.550781 271.921875 110.058594 275.179688 108.578125 C 283.679688 104.71875 291.714844 101.066406 301.652344 101.054688 C 311.605469 101.066406 319.636719 104.71875 328.140625 108.585938 C 331.398438 110.070312 334.710938 111.5625 338.15625 112.871094 C 344.117188 115.128906 350.527344 116.804688 357.917969 116.804688 C 359.390625 116.804688 360.816406 116.742188 362.210938 116.621094 C 361.699219 115.367188 361.164062 114.113281 360.621094 112.871094 C 360.042969 111.542969 359.445312 110.222656 358.832031 108.914062 C 358.527344 108.925781 358.234375 108.9375 357.917969 108.9375 C 347.957031 108.9375 339.910156 105.285156 331.398438 101.414062 C 322.503906 97.382812 313.316406 93.199219 301.652344 93.1875 C 290.003906 93.207031 280.816406 97.382812 271.921875 101.414062 C 263.40625 105.285156 255.363281 108.9375 245.402344 108.9375 C 235.441406 108.9375 227.394531 105.285156 218.882812 101.414062 C 209.988281 97.382812 200.800781 93.199219 189.140625 93.1875 C 177.488281 93.207031 168.300781 97.382812 159.40625 101.414062 C 150.890625 105.285156 142.847656 108.9375 132.886719 108.9375 C 122.925781 108.9375 114.878906 105.285156 106.367188 101.414062 C 97.472656 97.382812 88.285156 93.199219 76.625 93.1875 C 64.972656 93.207031 55.785156 97.382812 46.890625 101.414062 C 38.378906 105.285156 30.332031 108.9375 20.371094 108.9375 C 19.410156 108.9375 18.464844 108.894531 17.539062 108.828125 C 16.914062 110.167969 16.304688 111.519531 15.707031 112.871094 C 15.195312 114.046875 14.691406 115.226562 14.203125 116.414062 C 16.1875 116.664062 18.234375 116.804688 20.371094 116.804688 C 27.761719 116.773438 34.167969 115.09375 40.132812 112.839844 Z M 40.132812 112.839844 " fill-opacity="1" fill-rule="nonzero"/><g fill="#161d1d" fill-opacity="1"><g transform="translate(15.121243, 229.272447)"><g><path d="M 75.125 -43.3125 L 83.90625 -43.3125 L 83.90625 -10.265625 C 79.863281 -6.722656 75.078125 -4 69.546875 -2.09375 C 64.023438 -0.195312 58.210938 0.75 52.109375 0.75 C 43.441406 0.75 35.640625 -1.144531 28.703125 -4.9375 C 21.773438 -8.738281 16.332031 -14 12.375 -20.71875 C 8.414062 -27.445312 6.4375 -34.976562 6.4375 -43.3125 C 6.4375 -51.644531 8.414062 -59.171875 12.375 -65.890625 C 16.332031 -72.617188 21.773438 -77.878906 28.703125 -81.671875 C 35.640625 -85.472656 43.484375 -87.375 52.234375 -87.375 C 58.828125 -87.375 64.890625 -86.320312 70.421875 -84.21875 C 75.953125 -82.113281 80.613281 -79 84.40625 -74.875 L 78.71875 -69.0625 C 71.863281 -75.820312 63.15625 -79.203125 52.59375 -79.203125 C 45.582031 -79.203125 39.25 -77.65625 33.59375 -74.5625 C 27.945312 -71.46875 23.515625 -67.175781 20.296875 -61.6875 C 17.078125 -56.207031 15.46875 -50.082031 15.46875 -43.3125 C 15.46875 -36.550781 17.078125 -30.445312 20.296875 -25 C 23.515625 -19.550781 27.925781 -15.257812 33.53125 -12.125 C 39.144531 -8.988281 45.460938 -7.421875 52.484375 -7.421875 C 61.390625 -7.421875 68.9375 -9.648438 75.125 -14.109375 Z M 75.125 -43.3125 "/></g></g></g><g fill="#161d1d" fill-opacity="1"><g transform="translate(122.173009, 229.272447)"><g><path d="M 68.4375 -23.140625 L 20.171875 -23.140625 L 9.78125 0 L 0.25 0 L 39.859375 -86.640625 L 48.890625 -86.640625 L 88.5 0 L 78.84375 0 Z M 65.09375 -30.5625 L 44.3125 -77.109375 L 23.515625 -30.5625 Z M 65.09375 -30.5625 "/></g></g></g><g fill="#161d1d" fill-opacity="1"><g transform="translate(222.29432, 229.272447)"><g><path d="M 14.109375 -86.640625 L 23.265625 -86.640625 L 23.265625 0 L 14.109375 0 Z M 14.109375 -86.640625 "/></g></g></g><g fill="#161d1d" fill-opacity="1"><g transform="translate(271.056085, 229.272447)"><g><path d="M 68.4375 -23.140625 L 20.171875 -23.140625 L 9.78125 0 L 0.25 0 L 39.859375 -86.640625 L 48.890625 -86.640625 L 88.5 0 L 78.84375 0 Z M 65.09375 -30.5625 L 44.3125 -77.109375 L 23.515625 -30.5625 Z M 65.09375 -30.5625 "/></g></g></g></svg>