<svg width="158" height="33" viewBox="0 0 158 33" fill="none" xmlns="http://www.w3.org/2000/svg">
<g clip-path="url(#clip0_24_758)">
<path d="M8.13124 25.1674C5.28911 25.1674 3.09385 24.7448 1.54254 23.8997C1.03909 23.6318 0.711267 23.3551 0.559062 23.0664C0.406857 22.7778 0.330755 22.3552 0.330755 21.7987V19.9C0.330755 19.0787 0.690777 18.668 1.41375 18.668C1.65376 18.668 2.1016 18.8019 2.75725 19.0668C3.4129 19.3346 4.27637 19.5935 5.34765 19.8494C6.41894 20.1054 7.56633 20.2333 8.78982 20.2333C11.0202 20.2333 12.1354 19.5548 12.1354 18.2008C12.1354 17.5133 11.8573 16.9688 11.2983 16.567C10.7421 16.1682 9.54499 15.7784 7.70683 15.4004L6.88726 15.2338C4.48126 14.7457 2.73383 13.9393 1.64206 12.8173C0.550281 11.6954 0.00292969 10.1896 0.00292969 8.29989C0.00292969 5.96676 0.746391 4.13955 2.23331 2.81526C3.72024 1.49395 6.0033 0.830322 9.08545 0.830322C11.6202 0.830322 13.7628 1.28564 15.5102 2.19627C16.0137 2.4641 16.3415 2.73491 16.4937 3.01167C16.6459 3.28843 16.722 3.71697 16.722 4.2943V6.02628C16.722 6.84764 16.362 7.25832 15.639 7.25832C15.4868 7.25832 14.6614 7.00834 13.1628 6.50838C11.6641 6.00843 10.2709 5.75845 8.983 5.75845C6.66481 5.75845 5.50864 6.41315 5.50864 7.72553C5.50864 8.37131 5.76622 8.85341 6.27844 9.17481C6.79067 9.49621 7.87952 9.85927 9.54206 10.258L10.4933 10.4902C13.0281 11.1121 14.8546 11.9692 15.9698 13.0554C17.085 14.1446 17.6411 15.6683 17.6411 17.6235C17.6411 19.9357 16.8654 21.7689 15.3141 23.123C13.7628 24.48 11.3685 25.1555 8.13417 25.1555L8.13124 25.1674Z" fill="white"/>
<path d="M36.9125 7.33257C37.5887 7.33257 37.9282 7.73134 37.9282 8.53187V23.7983C37.9282 24.5989 37.5887 24.9976 36.9125 24.9976C36.453 24.9976 35.9408 24.8012 35.3729 24.4144C34.8051 24.0275 34.3016 23.4978 33.8655 22.8312C33.2743 23.5424 32.4459 24.1376 31.3746 24.6137C30.3033 25.0899 29.1442 25.3309 27.9003 25.3309C25.3421 25.3309 23.2551 24.4709 21.6394 22.7478C20.0207 21.0248 19.2129 18.8315 19.2129 16.1651C19.2129 13.4987 20.0266 11.359 21.654 9.6151C23.2814 7.87121 25.3625 6.99927 27.9003 6.99927C29.1472 6.99927 30.3033 7.23734 31.3746 7.71646C32.4459 8.19559 33.2772 8.7878 33.8655 9.49904C34.3016 8.83244 34.8051 8.3057 35.3729 7.91585C35.9408 7.52601 36.4559 7.33257 36.9125 7.33257ZM25.6992 19.3166C26.4865 20.129 27.4583 20.5338 28.6174 20.5338C29.7765 20.5338 30.7424 20.129 31.5181 19.3166C32.2937 18.5072 32.683 17.4567 32.683 16.1681C32.683 14.8795 32.2937 13.829 31.5181 13.0196C30.7424 12.2101 29.7736 11.8024 28.6174 11.8024C27.4612 11.8024 26.4865 12.2071 25.6992 13.0196C24.9118 13.832 24.5196 14.8795 24.5196 16.1681C24.5196 17.4567 24.9118 18.5072 25.6992 19.3166Z" fill="white"/>
<path d="M41.9325 25.3341C41.2973 25.3341 40.8495 25.1942 40.589 24.9174C40.3256 24.6407 40.1968 24.1883 40.1968 23.5664V6.66611C40.1968 4.68712 40.6388 3.0831 41.5256 1.84809C42.4096 0.616062 43.3901 -0.00292969 44.4614 -0.00292969C45.1171 -0.00292969 45.4449 0.395844 45.4449 1.19637V23.5634C45.4449 24.1854 45.3132 24.6347 45.0527 24.9145C44.7893 25.1912 44.3414 25.3311 43.7092 25.3311H41.9383L41.9325 25.3341Z" fill="white"/>
<path d="M64.1895 16.0996C64.1895 16.7008 64.0695 17.1293 63.8295 17.3823C63.5895 17.6382 63.1504 17.7662 62.5182 17.7662H52.3556C52.5956 18.6113 53.1313 19.3047 53.9625 19.8493C54.7938 20.3939 55.8739 20.6647 57.2086 20.6647C58.3882 20.6647 59.4829 20.5189 60.4869 20.2302C61.4908 19.9416 62.006 19.7957 62.0265 19.7957C62.6177 19.7957 62.9104 20.1171 62.9104 20.7629V22.6973C62.9104 23.4293 62.6821 23.9412 62.2226 24.2299C61.0635 24.9619 59.2165 25.3309 56.6817 25.3309C53.9479 25.3309 51.6824 24.5096 49.8794 22.8639C48.0763 21.2182 47.1748 18.9863 47.1748 16.1651C47.1748 13.6088 47.9885 11.4423 49.6159 9.66569C51.2434 7.88907 53.2835 6.99927 55.7305 6.99927C58.4409 6.99927 60.5278 7.81467 61.9913 9.44845C63.4548 11.0822 64.1866 13.2993 64.1866 16.0996H64.1895ZM55.7949 11.4661C54.8319 11.4661 54.0504 11.728 53.4503 12.2488C52.8503 12.7696 52.4727 13.4659 52.3205 14.3319H59.1082C58.9999 13.4659 58.6663 12.7696 58.1072 12.2488C57.5511 11.728 56.7783 11.4661 55.7949 11.4661Z" fill="white"/>
<path d="M72.4142 25.3339C71.2551 25.3339 70.1077 25.2208 68.972 25.0006C67.8364 24.7774 67.0256 24.5334 66.5455 24.2685C65.9543 23.9352 65.6616 23.4353 65.6616 22.7687V21.1349C65.6616 20.3135 66.0099 19.9028 66.7095 19.9028C66.8412 19.9028 67.529 20.0963 68.7759 20.4861C70.0228 20.876 71.3868 21.0694 72.8737 21.0694C74.1646 21.0694 74.8085 20.6349 74.8085 19.7689C74.8085 19.3463 74.6329 19.0458 74.2846 18.8702C73.9333 18.6916 73.2455 18.5042 72.2181 18.3048L71.1702 18.1054C69.3789 17.7721 68.0061 17.2275 67.0548 16.4716C66.1036 15.7157 65.6294 14.5611 65.6294 13.0047C65.6294 10.9364 66.3114 9.45439 67.6783 8.55566C69.0452 7.65693 70.7985 7.20459 72.9411 7.20459C75.3236 7.20459 77.2028 7.53789 78.5814 8.2045C79.1727 8.49316 79.4654 8.99312 79.4654 9.70436V11.3381C79.4654 12.1149 79.1141 12.5047 78.4175 12.5047C78.1775 12.5047 77.4399 12.3321 76.2047 11.9869C74.9695 11.6417 73.8601 11.4691 72.8767 11.4691C71.5859 11.4691 70.9419 11.847 70.9419 12.6029C70.9419 12.9809 71.1058 13.2517 71.4337 13.4183C71.7615 13.585 72.4171 13.7576 73.4006 13.9361L74.3197 14.1028C76.1988 14.4361 77.636 14.9926 78.6312 15.7693C79.6264 16.546 80.1239 17.8346 80.1239 19.635C80.1239 21.614 79.4127 23.0573 77.9931 23.9679C76.5735 24.8786 74.7148 25.3339 72.4201 25.3339H72.4142Z" fill="white"/>
<path d="M91.7911 6.99927C94.3493 6.99927 96.4363 7.85931 98.052 9.58237C99.6706 11.3054 100.478 13.4987 100.478 16.1651C100.478 18.8315 99.6413 20.9444 97.97 22.6973C96.2987 24.453 94.2147 25.3309 91.7238 25.3309C89.909 25.3309 88.3343 24.831 87.0025 23.8311V31.7976C87.0025 32.5981 86.6747 32.9969 86.019 32.9969C84.9478 32.9969 83.9701 32.3809 83.0833 31.1459C82.1993 29.9139 81.7544 28.3069 81.7544 26.3279V8.53187C81.7544 7.73134 82.0939 7.33257 82.7701 7.33257C83.2296 7.33257 83.7418 7.52601 84.3097 7.91585C84.8775 8.3057 85.381 8.83244 85.8171 9.49904C86.4083 8.7878 87.2367 8.19261 88.308 7.71646C89.3793 7.23734 90.5384 6.99927 91.7823 6.99927H91.7911ZM91.0711 20.5338C92.2302 20.5338 93.2019 20.135 93.9893 19.3345C94.7767 18.5339 95.1689 17.4805 95.1689 16.1681C95.1689 14.8557 94.7767 13.829 93.9893 13.0196C93.2019 12.2101 92.2302 11.8024 91.0711 11.8024C89.912 11.8024 88.9461 12.2071 88.1704 13.0196C87.3947 13.832 87.0054 14.8795 87.0054 16.1681C87.0054 17.4567 87.3977 18.5339 88.185 19.3345C88.9724 20.135 89.9325 20.5338 91.0711 20.5338Z" fill="white"/>
<path d="M118.995 16.0996C118.995 16.7008 118.875 17.1293 118.635 17.3823C118.395 17.6382 117.956 17.7662 117.323 17.7662H107.161C107.401 18.6113 107.936 19.3047 108.768 19.8493C109.599 20.3939 110.679 20.6647 112.014 20.6647C113.193 20.6647 114.288 20.5189 115.292 20.2302C116.296 19.9416 116.811 19.7957 116.832 19.7957C117.423 19.7957 117.716 20.1171 117.716 20.7629V22.6973C117.716 23.4293 117.487 23.9412 117.028 24.2299C115.869 24.9619 114.022 25.3309 111.487 25.3309C108.753 25.3309 106.488 24.5096 104.685 22.8639C102.881 21.2182 101.98 18.9863 101.98 16.1651C101.98 13.6088 102.794 11.4423 104.421 9.66569C106.049 7.88907 108.089 6.99927 110.536 6.99927C113.246 6.99927 115.333 7.81467 116.797 9.44845C118.26 11.0822 118.992 13.2993 118.992 16.0996H118.995ZM110.603 11.4661C109.64 11.4661 108.858 11.728 108.258 12.2488C107.658 12.7696 107.281 13.4659 107.129 14.3319H113.916C113.805 13.4659 113.474 12.7696 112.915 12.2488C112.359 11.728 111.586 11.4661 110.603 11.4661Z" fill="white"/>
<path d="M138.319 7.33257C138.995 7.33257 139.334 7.73134 139.334 8.53187V23.7983C139.334 24.5989 138.995 24.9976 138.319 24.9976C137.859 24.9976 137.347 24.8012 136.779 24.4144C136.211 24.0275 135.708 23.4978 135.272 22.8312C134.681 23.5424 133.852 24.1376 132.781 24.6137C131.71 25.0899 130.55 25.3309 129.307 25.3309C126.748 25.3309 124.661 24.4709 123.046 22.7478C121.427 21.0248 120.619 18.8315 120.619 16.1651C120.619 13.4987 121.433 11.359 123.06 9.6151C124.688 7.87121 126.769 6.99927 129.307 6.99927C130.553 6.99927 131.71 7.23734 132.781 7.71646C133.852 8.19559 134.683 8.7878 135.272 9.49904C135.708 8.83244 136.211 8.3057 136.779 7.91585C137.347 7.52601 137.862 7.33257 138.319 7.33257ZM127.105 19.3166C127.893 20.129 128.865 20.5338 130.024 20.5338C131.183 20.5338 132.149 20.129 132.924 19.3166C133.7 18.5072 134.089 17.4567 134.089 16.1681C134.089 14.8795 133.7 13.829 132.924 13.0196C132.149 12.2101 131.18 11.8024 130.024 11.8024C128.867 11.8024 127.893 12.2071 127.105 13.0196C126.318 13.832 125.926 14.8795 125.926 16.1681C125.926 17.4567 126.318 18.5072 127.105 19.3166Z" fill="white"/>
<path d="M157.743 23.9324C158.026 24.3103 158.076 24.6377 157.889 24.9145C157.702 25.1912 157.38 25.3311 156.923 25.3311H154.464C153.37 25.3311 152.453 24.852 151.71 23.8967L148.072 19.1977L146.333 20.9654V23.5664C146.333 24.1883 146.201 24.6377 145.941 24.9174C145.677 25.1942 145.23 25.3341 144.597 25.3341H142.827C142.191 25.3341 141.744 25.1942 141.483 24.9174C141.22 24.6407 141.091 24.1883 141.091 23.5664V6.66611C141.091 4.68712 141.533 3.0831 142.42 1.84809C143.304 0.616062 144.284 -0.00292969 145.355 -0.00292969C146.011 -0.00292969 146.339 0.395844 146.339 1.19637V14.9957L151.684 9.59442C152.187 9.08256 152.612 8.7433 152.963 8.57665C153.311 8.41 153.858 8.32667 154.602 8.32667H156.996C157.412 8.32667 157.672 8.48142 157.784 8.79389C157.892 9.10636 157.795 9.40396 157.488 9.69262L151.587 15.6593L157.751 23.9265L157.743 23.9324Z" fill="white"/>
</g>
<defs>
<clipPath id="clip0_24_758">
<rect width="158" height="33" fill="white"/>
</clipPath>
</defs>
</svg>
