<?xml version="1.0" standalone="no"?>
<!DOCTYPE svg PUBLIC "-//W3C//DTD SVG 20010904//EN"
 "http://www.w3.org/TR/2001/REC-SVG-20010904/DTD/svg10.dtd">
<svg version="1.0" xmlns="http://www.w3.org/2000/svg"
 width="218.000000pt" height="211.000000pt" viewBox="0 0 218.000000 211.000000"
 preserveAspectRatio="xMidYMid meet">

<g transform="translate(0.000000,211.000000) scale(0.100000,-0.100000)"
fill="#800080" stroke="none">
<path d="M1160 1930 c-86 -51 -213 -106 -292 -126 -101 -26 -241 -7 -369 50
-11 5 -23 -4 -43 -34 l-27 -40 46 -20 c98 -42 158 -54 260 -54 116 0 190 23
335 102 47 26 88 48 91 50 3 1 9 -62 12 -140 7 -164 22 -229 79 -343 40 -80
123 -205 136 -205 7 0 52 65 52 75 0 3 -22 32 -48 64 -70 84 -90 120 -111 203
-22 87 -41 257 -41 375 0 46 -3 83 -7 82 -5 0 -37 -18 -73 -39z"/>
<path d="M1574 1874 c-4 -15 -4 -70 -1 -123 10 -174 56 -262 219 -415 l98 -93
-88 -33 c-181 -68 -259 -115 -362 -220 -52 -52 -105 -115 -118 -137 l-23 -42
38 -10 c60 -17 66 -14 98 46 67 129 212 227 476 323 l117 43 -57 47 c-75 63
-192 185 -224 235 -14 22 -38 75 -52 119 -22 67 -26 92 -23 172 l3 93 -42 10
c-55 14 -52 15 -59 -15z"/>
<path d="M253 1477 c18 -48 40 -215 41 -312 0 -95 -3 -120 -26 -182 -27 -76
-105 -195 -139 -213 -21 -12 -18 -24 22 -70 l21 -25 54 57 c31 34 70 93 96
144 40 82 43 92 46 188 4 90 -11 221 -34 303 l-6 23 73 -26 c234 -80 399 -86
605 -23 35 11 64 23 64 27 0 4 -13 23 -29 42 l-29 34 -68 -27 c-110 -42 -154
-49 -252 -37 -122 15 -314 63 -428 107 -13 5 -16 3 -11 -10z"/>
<path d="M722 1117 l-33 -12 -2 -120 c-2 -115 -4 -123 -38 -195 -40 -84 -148
-248 -215 -326 l-43 -51 111 -17 c145 -23 270 -59 336 -99 71 -42 174 -152
198 -210 10 -26 24 -45 29 -43 6 3 27 10 48 17 20 7 37 16 37 20 0 4 -22 41
-49 81 -118 175 -243 246 -493 280 l-86 11 57 76 c117 155 152 224 181 358 23
102 27 243 8 242 -7 0 -28 -6 -46 -12z"/>
<path d="M912 738 l3 -50 76 -22 c41 -12 95 -34 120 -48 81 -48 268 -261 342
-389 l21 -36 59 106 c73 132 152 237 211 279 68 49 167 92 240 104 l66 11 0
49 0 49 -37 -6 c-72 -12 -178 -47 -237 -78 -99 -53 -184 -153 -266 -317 l-33
-65 -16 25 c-53 82 -169 225 -213 264 -54 47 -237 147 -301 164 l-38 11 3 -51z"/>
</g>
</svg>
