<svg xmlns="http://www.w3.org/2000/svg" xmlns:xlink="http://www.w3.org/1999/xlink" viewBox="0 0 475.3 115.7"><defs><linearGradient id="a" x1="479.49" y1="57.83" x2="213.3" y2="57.83" gradientUnits="userSpaceOnUse"><stop offset="0" stop-color="#3fa9f5"/><stop offset="0.17" stop-color="#3d98f8"/><stop offset="0.46" stop-color="#3983fc"/><stop offset="0.74" stop-color="#3876fe"/><stop offset="1" stop-color="#3772ff"/></linearGradient></defs><path d="M400.8,35.1A6.1,6.1,0,0,1,402,39a9.2,9.2,0,0,1-1,4.4,7.9,7.9,0,0,1-2.7,3,6.4,6.4,0,0,1-3.7,1.1,5.4,5.4,0,0,1-3.8-1.4,5.6,5.6,0,0,1-1.3-3.9,9.2,9.2,0,0,1,1-4.4,7.4,7.4,0,0,1,2.8-3,7.6,7.6,0,0,1,3.8-1.1A5,5,0,0,1,400.8,35.1ZM277.6,33.6a6.7,6.7,0,0,0-5.4,2.6,9.2,9.2,0,0,0-2.1,6.1,5.7,5.7,0,0,0,1.3,3.9,4.9,4.9,0,0,0,3.6,1.4,6.4,6.4,0,0,0,3.8-1.2,7.6,7.6,0,0,0,2.7-3.2,10.8,10.8,0,0,0,1-4.3,6.1,6.1,0,0,0-1.3-3.9A4.9,4.9,0,0,0,277.6,33.6ZM475.3,73.3c-15,14.9-31.5,28.3-47.5,42.4l-192.7-62,2.2-12.5H255l1.8-9.8H239l1.6-9h19l1.8-10h-31l-6.7,37.7-10.4-3.3c2.4-15.7,4.8-30.8,7.2-46.3L445.8,0c10.9,18.2,22.7,36.4,32.7,55.5C480.8,59.9,478.9,69.7,475.3,73.3ZM293.9,37.7a13.6,13.6,0,0,0-1.7-6.7,12.9,12.9,0,0,0-5.1-4.7,16,16,0,0,0-7.8-1.7,23.8,23.8,0,0,0-11,2.4,16.7,16.7,0,0,0-7.1,6.8A20.3,20.3,0,0,0,258.7,44a12,12,0,0,0,1.8,6.5,11.3,11.3,0,0,0,5.1,4.5,17.1,17.1,0,0,0,7.7,1.7,22.6,22.6,0,0,0,11-2.5,16.7,16.7,0,0,0,7.1-6.8A18.7,18.7,0,0,0,293.9,37.7Zm25.6-2.8,4.2-9.5a10.6,10.6,0,0,0-4.5-.8,9.8,9.8,0,0,0-5.7,1.6,11.5,11.5,0,0,0-3.8,4.4h-.2c.7-2.5,1.2-4.3,1.4-5.4H300.6L295.2,56h11.5l2.7-15.3c.8-4.2,3-6.3,6.8-6.3A13.9,13.9,0,0,1,319.5,34.9Zm55.6-.2a10.2,10.2,0,0,0-2.7-7.4c-1.8-1.8-4.3-2.7-7.6-2.7a12.9,12.9,0,0,0-11.2,5.6c-1.1-3.8-3.8-5.6-8.1-5.6a10.4,10.4,0,0,0-5.9,1.6,14,14,0,0,0-4.2,4.5h-.3a35.3,35.3,0,0,0,1.5-5.5H326.5L321,56h11.5l3.1-17.1a5.8,5.8,0,0,1,1.7-3.5,4.4,4.4,0,0,1,3.3-1.3,2.9,2.9,0,0,1,3.2,3.2c0,.6-.1,1.1-.1,1.4L340.6,56H352l3-17.1a6.2,6.2,0,0,1,1.8-3.4,4.4,4.4,0,0,1,3.2-1.2,2.9,2.9,0,0,1,2.4.8,3.2,3.2,0,0,1,.9,2.4,9.6,9.6,0,0,1-.2,1.2l-3,17.3h11.5l3.2-18.4A12.3,12.3,0,0,0,375.1,34.7Zm40.8-9.5H405.1a30.1,30.1,0,0,0-.3,3.9c0,.7.1,1.3.1,1.7h-.2a8.5,8.5,0,0,0-3.5-4.5,12.2,12.2,0,0,0-6.9-1.7,13.9,13.9,0,0,0-8.4,2.6,17.1,17.1,0,0,0-5.8,6.9,22.6,22.6,0,0,0-2,9.4,16.3,16.3,0,0,0,1.4,6.9,11.8,11.8,0,0,0,4.1,4.7,12.7,12.7,0,0,0,6.2,1.6,15.4,15.4,0,0,0,6.3-1.3,15.2,15.2,0,0,0,4.6-3.9h.2a31.9,31.9,0,0,0-1.3,4.4h10.8Zm13.2,20.1a2.2,2.2,0,0,1,.1-.9l5.6-32H423.3l-5.7,32.4a15.1,15.1,0,0,0-.2,3c0,2.9.7,5,2.3,6.6s3.8,2.3,6.7,2.3a22.3,22.3,0,0,0,8.3-1.4l-.5-8.2a10.4,10.4,0,0,1-2.8.5A2.1,2.1,0,0,1,429.1,45.3Z" transform="translate(-4.2 0)" style="fill:url(#a)"/><path d="M5.9,11.9H43.1l-1.8,9.8H28.8l-6,33.8h-12l5.9-33.8H4.2Z" transform="translate(-4.2 0)" style="fill:#171219"/><path d="M67.6,39.3a15.7,15.7,0,0,1-1.1,3.8H46.1a3.5,3.5,0,0,0,1.6,3.2,6.8,6.8,0,0,0,4,1.1,12.8,12.8,0,0,0,8.1-2.5l3.8,7a22.8,22.8,0,0,1-13.7,4.3c-4.5,0-8.2-1.1-10.9-3.2s-4.2-5.2-4.2-9.4a20.8,20.8,0,0,1,2.4-10.2,16.5,16.5,0,0,1,6.7-6.9,21.3,21.3,0,0,1,10.4-2.4c4.2,0,7.5,1,10,3S68,32,68,35.6A18,18,0,0,1,67.6,39.3ZM49.3,33.5a6.5,6.5,0,0,0-2.4,3.9H57.2a4.8,4.8,0,0,0,.3-1.8c0-2.3-1.4-3.4-4-3.4A6.8,6.8,0,0,0,49.3,33.5Z" transform="translate(-4.2 0)" style="fill:#171219"/><path d="M103.5,24.7,91.3,40.2l8.1,15.3H87.5l-1.7-3.4a48.9,48.9,0,0,1-2.1-5.4h-.1A62.3,62.3,0,0,1,80,52.1l-2.6,3.4H64L77.1,39.9,69.8,24.7H81.5L83,28.5a46.7,46.7,0,0,1,2,5h.2a37.6,37.6,0,0,1,3.1-5L91,24.7Z" transform="translate(-4.2 0)" style="fill:#171219"/><path d="M119.2,33.3l-1.7,9.9a8.9,8.9,0,0,0-.2,1.1,2.6,2.6,0,0,0,.7,1.9,2.1,2.1,0,0,0,1.8.7,10.2,10.2,0,0,0,3.6-.8l1.3,8.4a24.7,24.7,0,0,1-9.3,1.7,10.3,10.3,0,0,1-7.1-2.4c-1.8-1.6-2.7-3.9-2.7-7a26.6,26.6,0,0,1,.2-3l1.9-10.5h-4.8l1.5-8.6h4.8l1.3-7.4,11.8-1.2-1.6,8.6h6.9l-1.5,8.6Z" transform="translate(-4.2 0)" style="fill:#171219"/><path d="M145.4,11.9h34.9l-1,5.5H164.8l-6.6,38.1h-6.1l6.6-38.1H144.4Z" transform="translate(-4.2 0)" style="fill:#171219"/><path d="M177.3,54.6a13.2,13.2,0,0,1-4.8-4.6,14.1,14.1,0,0,1-1.7-6.9,20.6,20.6,0,0,1,2.3-9.6,17.4,17.4,0,0,1,6.8-6.9,19.8,19.8,0,0,1,10.2-2.5,15.3,15.3,0,0,1,7.2,1.6,12,12,0,0,1,6.4,11.1,20.6,20.6,0,0,1-2.3,9.9,17.8,17.8,0,0,1-6.7,6.9,20.2,20.2,0,0,1-10.3,2.6A16.1,16.1,0,0,1,177.3,54.6Zm14.3-5.5a13,13,0,0,0,4.5-4.8,11.9,11.9,0,0,0,1.7-6.3,8.5,8.5,0,0,0-2.3-6.3,8.1,8.1,0,0,0-6.2-2.4,11.9,11.9,0,0,0-6.4,1.8,14.1,14.1,0,0,0-4.6,4.8,12.6,12.6,0,0,0-1.6,6.3,8.5,8.5,0,0,0,2.3,6.3,8.2,8.2,0,0,0,6.3,2.4A11.6,11.6,0,0,0,191.6,49.1Z" transform="translate(-4.2 0)" style="fill:#171219"/><path d="M10.1,68.4l-.7,3.9v.5c0,.5.2.8.8.8l1.2-.2.2,1.1a3.8,3.8,0,0,1-1.7.4,2.5,2.5,0,0,1-1.5-.5,2.5,2.5,0,0,1-.5-1.5,1.3,1.3,0,0,1,.1-.6l.6-3.9H7.2l.2-1.2H8.8l.4-2h1.5l-.4,2.1h2.3l-.3,1.2Z" transform="translate(-4.2 0)"/><path d="M12.5,74.8l1.4-7.6h1.3l-.3,1.4h0A3.8,3.8,0,0,1,16,67.5a2.4,2.4,0,0,1,1.5-.4,1.5,1.5,0,0,1,1,.2L18,68.5h-.8a2,2,0,0,0-1.6.7,3.1,3.1,0,0,0-.9,1.8L14,74.8Z" transform="translate(-4.2 0)"/><path d="M19.5,74.5a2.9,2.9,0,0,1-1.1-1.1,2.9,2.9,0,0,1-.4-1.6,4.8,4.8,0,0,1,.6-2.4,3.5,3.5,0,0,1,1.5-1.7,4.4,4.4,0,0,1,2.3-.6,3.1,3.1,0,0,1,1.7.4,3.1,3.1,0,0,1,.9,1.1h.1a7.8,7.8,0,0,1,.2-1.4h1.3l-1.3,7.6H24a3.5,3.5,0,0,1,.3-1.3h-.1a2.7,2.7,0,0,1-1.3,1,3.4,3.4,0,0,1-1.8.4A2.9,2.9,0,0,1,19.5,74.5Zm3.6-1.3a5.7,5.7,0,0,0,1.1-1.1,4.7,4.7,0,0,0,.4-1.6,2.1,2.1,0,0,0-.6-1.6,2.5,2.5,0,0,0-1.5-.5,2.9,2.9,0,0,0-1.6.4A4.3,4.3,0,0,0,19.8,70a3.8,3.8,0,0,0-.4,1.6,2,2,0,0,0,.6,1.5,2,2,0,0,0,1.5.5A2.9,2.9,0,0,0,23.1,73.2Z" transform="translate(-4.2 0)"/><path d="M27.2,74.8l1.4-7.6h1.3a4.4,4.4,0,0,1-.3,1.4h.1a2.5,2.5,0,0,1,1.2-1.1,3.5,3.5,0,0,1,1.7-.4,2.6,2.6,0,0,1,2,.7,2.5,2.5,0,0,1,.7,1.9,2.2,2.2,0,0,1-.1.8l-.7,4.3H33l.8-4.3a3.5,3.5,0,0,1,.1-.6,1.4,1.4,0,0,0-.5-1.1,1.5,1.5,0,0,0-1.2-.4,2.4,2.4,0,0,0-1.8.7,2.3,2.3,0,0,0-1,1.7l-.7,4Z" transform="translate(-4.2 0)"/><path d="M35.9,74l.8-1a4.5,4.5,0,0,0,2.6.8,2,2,0,0,0,1.3-.4.9.9,0,0,0,.5-.8c0-.6-.5-.9-1.6-1.1a4.8,4.8,0,0,1-1.8-.6,1.6,1.6,0,0,1-.7-1.4,2.1,2.1,0,0,1,.9-1.8,5.3,5.3,0,0,1,5.1.1l-.6,1.1a4.6,4.6,0,0,0-2.3-.6,2.1,2.1,0,0,0-1.2.3.9.9,0,0,0-.5.8c0,.5.5.8,1.5,1a4.7,4.7,0,0,1,1.9.6,1.6,1.6,0,0,1,.7,1.5,2,2,0,0,1-.4,1.3,2.7,2.7,0,0,1-1.2.9,4.8,4.8,0,0,1-1.8.3A5.1,5.1,0,0,1,35.9,74Z" transform="translate(-4.2 0)"/><path d="M44.4,74.5a2,2,0,0,1-.5-1.5v-.6l1.5-8.3h1.4l-1.4,8.2a1.3,1.3,0,0,0-.1.6.8.8,0,0,0,.2.6l.6.2h.8v1.2l-1.2.2A2,2,0,0,1,44.4,74.5Z" transform="translate(-4.2 0)"/><path d="M49.3,74.5a2.3,2.3,0,0,1-1.1-1.1,2.9,2.9,0,0,1-.4-1.6,6,6,0,0,1,.5-2.4,4.3,4.3,0,0,1,3.9-2.3,3.1,3.1,0,0,1,1.7.4,3.1,3.1,0,0,1,.9,1.1h.1a7.8,7.8,0,0,1,.2-1.4h1.3l-1.3,7.6H53.7l.3-1.3h0a3.2,3.2,0,0,1-1.3,1,3.4,3.4,0,0,1-1.8.4A2.9,2.9,0,0,1,49.3,74.5Zm3.5-1.3a2.9,2.9,0,0,0,1.1-1.1,3.3,3.3,0,0,0,.5-1.6,2.1,2.1,0,0,0-.6-1.6,2.5,2.5,0,0,0-1.6-.5,2.8,2.8,0,0,0-1.5.4A3.2,3.2,0,0,0,49.6,70a3.8,3.8,0,0,0-.4,1.6,2,2,0,0,0,.6,1.5,2,2,0,0,0,1.5.5A2.6,2.6,0,0,0,52.8,73.2Z" transform="translate(-4.2 0)"/><path d="M60.1,68.4l-.7,3.9c0,.2-.1.3-.1.5s.3.8.9.8l1.1-.2.3,1.1a3.8,3.8,0,0,1-1.7.4,1.8,1.8,0,0,1-2-2,1.3,1.3,0,0,1,.1-.6l.6-3.9H57.2l.2-1.2h1.4l.4-2h1.5l-.4,2.1h2.3l-.3,1.2Z" transform="translate(-4.2 0)"/><path d="M64.1,74.8H62.7L64,67.2h1.5Zm.3-9.1a.8.8,0,0,1-.2-.6.9.9,0,0,1,.3-.7,1.1,1.1,0,0,1,.8-.3c.3,0,.5,0,.6.2a.6.6,0,0,1,.3.6,1,1,0,0,1-.4.7,1.1,1.1,0,0,1-.8.3A.7.7,0,0,1,64.4,65.7Z" transform="translate(-4.2 0)"/><path d="M67.9,74.5a2.5,2.5,0,0,1-1.2-1.1,3.1,3.1,0,0,1-.4-1.7,5.9,5.9,0,0,1,.5-2.3,4.6,4.6,0,0,1,1.7-1.7,4.9,4.9,0,0,1,2.5-.6,3.7,3.7,0,0,1,1.8.4,2,2,0,0,1,1.1,1.1,2.9,2.9,0,0,1,.4,1.6,4.7,4.7,0,0,1-.5,2.4,4.6,4.6,0,0,1-1.7,1.7,4.9,4.9,0,0,1-2.5.6A3.1,3.1,0,0,1,67.9,74.5Zm3.5-1.3A4.3,4.3,0,0,0,72.5,72a2.6,2.6,0,0,0,.4-1.5,1.9,1.9,0,0,0-.6-1.5,2,2,0,0,0-1.5-.6,2.9,2.9,0,0,0-1.6.4A4.3,4.3,0,0,0,68.1,70a2.6,2.6,0,0,0-.4,1.5,2.1,2.1,0,0,0,.6,1.6,1.8,1.8,0,0,0,1.5.5A2.9,2.9,0,0,0,71.4,73.2Z" transform="translate(-4.2 0)"/><path d="M75.1,74.8l1.3-7.6h1.4c-.1.4-.2.8-.3,1.4h0a3.3,3.3,0,0,1,1.3-1.1,3.3,3.3,0,0,1,1.7-.4,2.7,2.7,0,0,1,2,.7,2.9,2.9,0,0,1,.7,1.9c0,.3-.1.5-.1.8l-.7,4.3H80.9l.8-4.3v-.6a1.4,1.4,0,0,0-.4-1.1,1.6,1.6,0,0,0-1.2-.4,2.8,2.8,0,0,0-1.9.7,2.6,2.6,0,0,0-.9,1.7l-.7,4Z" transform="translate(-4.2 0)"/><path d="M87.3,74l.8-1a4.5,4.5,0,0,0,2.6.8,2,2,0,0,0,1.3-.4.9.9,0,0,0,.5-.8c0-.6-.5-.9-1.6-1.1a4.8,4.8,0,0,1-1.8-.6,1.9,1.9,0,0,1-.7-1.4,2,2,0,0,1,1-1.8,4.3,4.3,0,0,1,2.4-.6,4.6,4.6,0,0,1,2.6.7l-.6,1.1a4.6,4.6,0,0,0-2.2-.6,2.3,2.3,0,0,0-1.3.3.9.9,0,0,0-.5.8c0,.5.5.8,1.6,1a4.8,4.8,0,0,1,1.8.6,1.6,1.6,0,0,1,.7,1.5,2,2,0,0,1-.4,1.3,2.7,2.7,0,0,1-1.2.9,4.8,4.8,0,0,1-1.8.3A5.3,5.3,0,0,1,87.3,74Z" transform="translate(-4.2 0)"/><path d="M96.4,71.5v.3a1.5,1.5,0,0,0,.6,1.3,1.8,1.8,0,0,0,1.5.5,3,3,0,0,0,1.3-.2,3.1,3.1,0,0,0,1.3-.6l.6,1a5.1,5.1,0,0,1-3.4,1.1,3.2,3.2,0,0,1-2.4-.8,3,3,0,0,1-.9-2.3,5,5,0,0,1,.6-2.4,4.1,4.1,0,0,1,1.5-1.7,4.8,4.8,0,0,1,2.4-.6,3.4,3.4,0,0,1,2.4.7,3.2,3.2,0,0,1,.7,2.2,7.7,7.7,0,0,1-.2,1.5Zm1.4-2.6a2.2,2.2,0,0,0-1.1,1.5h4.5a.8.8,0,0,0,.1-.4,1.5,1.5,0,0,0-.5-1.2,1.9,1.9,0,0,0-1.3-.5A2.5,2.5,0,0,0,97.8,68.9Z" transform="translate(-4.2 0)"/><path d="M103.2,74.8l1.4-7.6h1.3l-.3,1.4h0a3.8,3.8,0,0,1,1.1-1.1,2.6,2.6,0,0,1,1.5-.4,1.5,1.5,0,0,1,1,.2l-.5,1.2h-.8a2,2,0,0,0-1.6.7,3.1,3.1,0,0,0-.9,1.8l-.7,3.9Z" transform="translate(-4.2 0)"/><path d="M111.3,74.8l-1.9-7.6h1.5l.7,3.1a3.2,3.2,0,0,0,.2.9l.4,2.2h0l1.7-3.1,1.8-3.1h1.6l-4.5,7.6Z" transform="translate(-4.2 0)"/><path d="M118.6,74.8h-1.4l1.3-7.6H120Zm.3-9.1c-.2-.1-.2-.3-.2-.6a.9.9,0,0,1,.3-.7,1.1,1.1,0,0,1,.8-.3.7.7,0,0,1,.6.2.8.8,0,0,1,.2.6.9.9,0,0,1-.3.7,1.1,1.1,0,0,1-.8.3C119.2,65.9,119,65.9,118.9,65.7Z" transform="translate(-4.2 0)"/><path d="M122.4,74.6a3.2,3.2,0,0,1-1.2-1.1,3.5,3.5,0,0,1-.5-1.8,4.8,4.8,0,0,1,.6-2.4,4.4,4.4,0,0,1,1.7-1.6,4.9,4.9,0,0,1,2.5-.6,2.7,2.7,0,0,1,1.3.2,2.4,2.4,0,0,1,1.1.6l-.8,1.1a2.8,2.8,0,0,0-1.8-.6,2.9,2.9,0,0,0-1.6.4,3.2,3.2,0,0,0-1.1,1.2,2.8,2.8,0,0,0-.4,1.5,2.1,2.1,0,0,0,.6,1.6,1.7,1.7,0,0,0,1.5.5h1.1a3,3,0,0,0,1.1-.6l.5,1.2a3.5,3.5,0,0,1-1.4.6,3.9,3.9,0,0,1-1.5.2A4.3,4.3,0,0,1,122.4,74.6Z" transform="translate(-4.2 0)"/><path d="M129.5,71.5a.4.4,0,0,0-.1.3,1.5,1.5,0,0,0,.6,1.3,2,2,0,0,0,1.5.5,3.4,3.4,0,0,0,1.4-.2,3.8,3.8,0,0,0,1.3-.6l.5,1a5.1,5.1,0,0,1-3.4,1.1,3.2,3.2,0,0,1-2.4-.8,3,3,0,0,1-.9-2.3,5,5,0,0,1,.6-2.4,4.4,4.4,0,0,1,1.6-1.7,4.8,4.8,0,0,1,2.4-.6,3.2,3.2,0,0,1,2.3.7,3.3,3.3,0,0,1,.8,2.2,4,4,0,0,1-.3,1.5Zm1.3-2.6a2.5,2.5,0,0,0-1.1,1.5h4.6V70a1.5,1.5,0,0,0-.5-1.2,1.9,1.9,0,0,0-1.3-.5A2.7,2.7,0,0,0,130.8,68.9Z" transform="translate(-4.2 0)"/></svg>