<svg width="245" height="45" viewBox="0 0 245 45" fill="none" xmlns="http://www.w3.org/2000/svg">
<path d="M67.0017 35H65.9114L64.1603 32.5716C63.7308 32.957 63.2737 33.3205 62.7891 33.6619C62.3156 33.9923 61.8145 34.2841 61.2858 34.5374C60.7572 34.7797 60.212 34.9725 59.6504 35.1156C59.0997 35.2588 58.538 35.3304 57.9653 35.3304C56.7208 35.3304 55.5479 35.0991 54.4466 34.6366C53.3563 34.163 52.3981 33.5132 51.5721 32.6872C50.7571 31.8502 50.1129 30.8645 49.6393 29.7302C49.1657 28.5848 48.9289 27.3403 48.9289 25.9967C48.9289 24.664 49.1657 23.4251 49.6393 22.2797C50.1129 21.1343 50.7571 20.1431 51.5721 19.3061C52.3981 18.4691 53.3563 17.8138 54.4466 17.3402C55.5479 16.8667 56.7208 16.6299 57.9653 16.6299C58.3618 16.6299 58.7693 16.6629 59.1878 16.729C59.6173 16.7951 60.0303 16.9052 60.4268 17.0594C60.8343 17.2026 61.2142 17.3953 61.5667 17.6376C61.9191 17.8799 62.2165 18.1772 62.4587 18.5297V10.2697H67.0017V35ZM62.4587 25.9967C62.4587 25.3799 62.3376 24.7852 62.0953 24.2125C61.864 23.6288 61.5446 23.1167 61.1372 22.6762C60.7297 22.2246 60.2506 21.8667 59.6999 21.6024C59.1603 21.327 58.5821 21.1894 57.9653 21.1894C57.3486 21.1894 56.7649 21.2995 56.2142 21.5198C55.6746 21.74 55.201 22.0594 54.7935 22.4779C54.397 22.8854 54.0832 23.3865 53.8519 23.9812C53.6206 24.5759 53.505 25.2478 53.505 25.9967C53.505 26.6464 53.6206 27.2632 53.8519 27.8469C54.0832 28.4306 54.397 28.9427 54.7935 29.3832C55.201 29.8238 55.6746 30.1707 56.2142 30.424C56.7649 30.6773 57.3486 30.8039 57.9653 30.8039C58.5821 30.8039 59.1603 30.6718 59.6999 30.4075C60.2506 30.1321 60.7297 29.7742 61.1372 29.3337C61.5446 28.8821 61.864 28.37 62.0953 27.7973C62.3376 27.2136 62.4587 26.6134 62.4587 25.9967ZM74.9643 35H70.4544V17.3072H71.5447L73.0315 19.4052C73.7584 18.7444 74.5844 18.2378 75.5095 17.8854C76.4346 17.5219 77.3927 17.3402 78.3839 17.3402H82.3652V21.8336H78.3839C77.9104 21.8336 77.4643 21.9217 77.0458 22.098C76.6273 22.2742 76.2639 22.5165 75.9555 22.8248C75.6471 23.1332 75.4048 23.4966 75.2286 23.9151C75.0524 24.3336 74.9643 24.7797 74.9643 25.2533V35ZM101.264 35H100.174L98.4226 32.5716C97.9931 32.957 97.536 33.3205 97.0514 33.6619C96.5778 33.9923 96.0767 34.2841 95.5481 34.5374C95.0195 34.7797 94.4743 34.9725 93.9126 35.1156C93.362 35.2588 92.8003 35.3304 92.2276 35.3304C90.9831 35.3304 89.8102 35.1211 88.7089 34.7026C87.6186 34.2841 86.6604 33.6784 85.8344 32.8855C85.0194 32.0815 84.3751 31.1013 83.9016 29.9449C83.428 28.7885 83.1912 27.4724 83.1912 25.9967C83.1912 24.62 83.428 23.359 83.9016 22.2136C84.3751 21.0572 85.0194 20.066 85.8344 19.24C86.6604 18.414 87.6186 17.7752 88.7089 17.3237C89.8102 16.8611 90.9831 16.6299 92.2276 16.6299C92.8003 16.6299 93.3675 16.7015 93.9292 16.8446C94.4908 16.9878 95.036 17.186 95.5646 17.4393C96.0933 17.6926 96.5944 17.99 97.0679 18.3314C97.5525 18.6728 98.0041 19.0418 98.4226 19.4383L100.174 17.3402H101.264V35ZM96.721 25.9967C96.721 25.3799 96.5999 24.7852 96.3576 24.2125C96.1263 23.6288 95.8069 23.1167 95.3994 22.6762C94.9919 22.2246 94.5129 21.8667 93.9622 21.6024C93.4225 21.327 92.8443 21.1894 92.2276 21.1894C91.6109 21.1894 91.0272 21.294 90.4765 21.5032C89.9368 21.7125 89.4633 22.0209 89.0558 22.4284C88.6593 22.8358 88.3454 23.3425 88.1141 23.9482C87.8829 24.5429 87.7672 25.2257 87.7672 25.9967C87.7672 26.7676 87.8829 27.4559 88.1141 28.0616C88.3454 28.6564 88.6593 29.1575 89.0558 29.565C89.4633 29.9724 89.9368 30.2808 90.4765 30.4901C91.0272 30.6993 91.6109 30.8039 92.2276 30.8039C92.8443 30.8039 93.4225 30.6718 93.9622 30.4075C94.5129 30.1321 94.9919 29.7742 95.3994 29.3337C95.8069 28.8821 96.1263 28.37 96.3576 27.7973C96.5999 27.2136 96.721 26.6134 96.721 25.9967ZM117.305 25.9967C117.305 25.3799 117.184 24.7852 116.941 24.2125C116.71 23.6288 116.391 23.1167 115.983 22.6762C115.576 22.2246 115.097 21.8667 114.546 21.6024C114.006 21.327 113.428 21.1894 112.811 21.1894C112.195 21.1894 111.611 21.294 111.06 21.5032C110.521 21.7125 110.047 22.0209 109.64 22.4284C109.243 22.8358 108.929 23.3425 108.698 23.9482C108.467 24.5429 108.351 25.2257 108.351 25.9967C108.351 26.7345 108.467 27.4008 108.698 27.9956C108.929 28.5793 109.243 29.0804 109.64 29.4989C110.047 29.9174 110.521 30.2423 111.06 30.4735C111.611 30.6938 112.195 30.8039 112.811 30.8039C113.428 30.8039 114.006 30.6718 114.546 30.4075C115.097 30.1321 115.576 29.7742 115.983 29.3337C116.391 28.8821 116.71 28.37 116.941 27.7973C117.184 27.2136 117.305 26.6134 117.305 25.9967ZM121.848 32.7698C121.848 34.0143 121.611 35.1817 121.137 36.272C120.664 37.3623 120.014 38.315 119.188 39.13C118.373 39.945 117.415 40.5892 116.314 41.0628C115.223 41.5364 114.056 41.7732 112.811 41.7732L110.548 41.7401V37.2302L112.778 37.2632C113.483 37.2632 114.083 37.1696 114.579 36.9824C115.075 36.8062 115.493 36.5584 115.835 36.239C116.176 35.9306 116.446 35.5727 116.644 35.1652C116.853 34.7577 117.018 34.3282 117.14 33.8766C116.963 34.163 116.71 34.3998 116.38 34.587C116.049 34.7632 115.68 34.9064 115.273 35.0165C114.876 35.1377 114.458 35.2203 114.017 35.2643C113.588 35.3084 113.186 35.3304 112.811 35.3304C111.567 35.3304 110.394 35.1156 109.293 34.6861C108.202 34.2566 107.244 33.6454 106.418 32.8524C105.603 32.0484 104.959 31.0683 104.485 29.9119C104.012 28.7555 103.775 27.4504 103.775 25.9967C103.775 24.664 104.012 23.4251 104.485 22.2797C104.959 21.1343 105.603 20.1431 106.418 19.3061C107.244 18.4691 108.202 17.8138 109.293 17.3402C110.394 16.8667 111.567 16.6299 112.811 16.6299C113.384 16.6299 113.951 16.7015 114.513 16.8446C115.075 16.9878 115.62 17.186 116.148 17.4393C116.677 17.6926 117.178 17.99 117.652 18.3314C118.136 18.6728 118.588 19.0418 119.006 19.4383L120.757 17.3402H121.848V32.7698ZM142.399 25.9967C142.399 27.3182 142.162 28.5517 141.688 29.6971C141.215 30.8315 140.57 31.8172 139.755 32.6542C138.94 33.4802 137.982 34.1355 136.881 34.62C135.791 35.0936 134.618 35.3304 133.362 35.3304C132.118 35.3304 130.945 35.0936 129.843 34.62C128.753 34.1355 127.795 33.4802 126.969 32.6542C126.154 31.8172 125.51 30.8315 125.036 29.6971C124.563 28.5517 124.326 27.3182 124.326 25.9967C124.326 24.653 124.563 23.4085 125.036 22.2632C125.51 21.1178 126.154 20.1321 126.969 19.3061C127.795 18.4691 128.753 17.8138 129.843 17.3402C130.945 16.8667 132.118 16.6299 133.362 16.6299C134.618 16.6299 135.791 16.8556 136.881 17.3072C137.982 17.7477 138.94 18.381 139.755 19.207C140.57 20.022 141.215 21.0076 141.688 22.164C142.162 23.3094 142.399 24.587 142.399 25.9967ZM137.856 25.9967C137.856 25.2698 137.734 24.6145 137.492 24.0308C137.261 23.4361 136.941 22.9295 136.534 22.511C136.126 22.0814 135.647 21.7565 135.097 21.5363C134.557 21.305 133.979 21.1894 133.362 21.1894C132.745 21.1894 132.162 21.305 131.611 21.5363C131.071 21.7565 130.598 22.0814 130.19 22.511C129.794 22.9295 129.48 23.4361 129.249 24.0308C129.017 24.6145 128.902 25.2698 128.902 25.9967C128.902 26.6795 129.017 27.3127 129.249 27.8964C129.48 28.4801 129.794 28.9868 130.19 29.4163C130.598 29.8458 131.071 30.1872 131.611 30.4405C132.162 30.6828 132.745 30.8039 133.362 30.8039C133.979 30.8039 134.557 30.6883 135.097 30.457C135.647 30.2257 136.126 29.9009 136.534 29.4824C136.941 29.0638 137.261 28.5572 137.492 27.9625C137.734 27.3678 137.856 26.7125 137.856 25.9967ZM149.403 35H144.893V17.3072H145.983L147.47 19.0253C148.197 18.3645 149.018 17.8578 149.932 17.5054C150.857 17.142 151.82 16.9603 152.823 16.9603C153.902 16.9603 154.921 17.1695 155.879 17.588C156.837 17.9955 157.674 18.5627 158.39 19.2896C159.106 20.0054 159.667 20.848 160.075 21.8171C160.493 22.7753 160.703 23.7995 160.703 24.8898V35H156.193V24.8898C156.193 24.4273 156.105 23.9922 155.928 23.5847C155.752 23.1662 155.51 22.8028 155.201 22.4944C154.893 22.1861 154.535 21.9438 154.128 21.7676C153.72 21.5913 153.285 21.5032 152.823 21.5032C152.349 21.5032 151.903 21.5913 151.484 21.7676C151.066 21.9438 150.703 22.1861 150.394 22.4944C150.086 22.8028 149.844 23.1662 149.667 23.5847C149.491 23.9922 149.403 24.4273 149.403 24.8898V35ZM173.638 35H163.329V30.5066H173.638C173.946 30.5066 174.21 30.3965 174.431 30.1762C174.651 29.9559 174.761 29.6916 174.761 29.3832C174.761 29.0638 174.651 28.8546 174.431 28.7555C174.21 28.6564 173.946 28.6068 173.638 28.6068H168.946C168.164 28.6068 167.432 28.4581 166.749 28.1608C166.066 27.8634 165.471 27.4614 164.965 26.9548C164.458 26.4372 164.056 25.837 163.759 25.1541C163.472 24.4713 163.329 23.7389 163.329 22.957C163.329 22.175 163.472 21.4427 163.759 20.7598C164.056 20.077 164.458 19.4823 164.965 18.9757C165.471 18.4691 166.066 18.0726 166.749 17.7863C167.432 17.4889 168.164 17.3402 168.946 17.3402H178.082V21.8336H168.946C168.638 21.8336 168.373 21.9438 168.153 22.164C167.933 22.3843 167.823 22.6486 167.823 22.957C167.823 23.2764 167.933 23.5517 168.153 23.783C168.373 24.0033 168.638 24.1134 168.946 24.1134H173.638C174.409 24.1134 175.135 24.2455 175.818 24.5099C176.501 24.7632 177.096 25.1211 177.602 25.5837C178.109 26.0462 178.511 26.6024 178.808 27.2522C179.106 27.9019 179.254 28.6123 179.254 29.3832C179.254 30.1652 179.106 30.8976 178.808 31.5804C178.511 32.2522 178.109 32.8469 177.602 33.3645C177.096 33.8711 176.501 34.2731 175.818 34.5705C175.135 34.8568 174.409 35 173.638 35ZM197.129 20.8259L193.825 24.1464C193.66 23.6839 193.434 23.2709 193.148 22.9074C192.861 22.533 192.536 22.2191 192.173 21.9658C191.821 21.7125 191.435 21.5198 191.017 21.3876C190.598 21.2554 190.169 21.1894 189.728 21.1894C189.111 21.1894 188.528 21.316 187.977 21.5693C187.437 21.8226 186.964 22.1806 186.556 22.6431C186.16 23.0947 185.846 23.6343 185.615 24.2621C185.383 24.8898 185.268 25.5837 185.268 26.3436C185.268 26.9603 185.383 27.5385 185.615 28.0782C185.846 28.6178 186.16 29.0914 186.556 29.4989C186.964 29.9064 187.437 30.2257 187.977 30.457C188.528 30.6883 189.111 30.8039 189.728 30.8039C190.169 30.8039 190.593 30.7434 191 30.6222C191.408 30.5011 191.788 30.3304 192.14 30.1101C192.503 29.8788 192.823 29.6035 193.098 29.2841C193.384 28.9537 193.616 28.5903 193.792 28.1938L197.096 31.5143C196.677 32.109 196.193 32.6432 195.642 33.1167C195.103 33.5903 194.513 33.9923 193.875 34.3227C193.247 34.6531 192.581 34.9009 191.876 35.0661C191.182 35.2423 190.466 35.3304 189.728 35.3304C188.484 35.3304 187.311 35.0991 186.209 34.6366C185.119 34.163 184.161 33.5187 183.335 32.7037C182.52 31.8888 181.876 30.9361 181.402 29.8458C180.928 28.7555 180.692 27.5881 180.692 26.3436C180.692 24.9889 180.928 23.7224 181.402 22.544C181.876 21.3656 182.52 20.3413 183.335 19.4713C184.161 18.5902 185.119 17.8964 186.209 17.3898C187.311 16.8832 188.484 16.6299 189.728 16.6299C190.466 16.6299 191.187 16.7235 191.892 16.9107C192.608 17.0979 193.285 17.3733 193.924 17.7367C194.574 18.0891 195.169 18.5242 195.708 19.0418C196.259 19.5594 196.733 20.1541 197.129 20.8259ZM216.209 35H215.119L213.368 32.5716C212.939 32.957 212.481 33.3205 211.997 33.6619C211.523 33.9923 211.022 34.2841 210.494 34.5374C209.965 34.7797 209.42 34.9725 208.858 35.1156C208.307 35.2588 207.746 35.3304 207.173 35.3304C205.929 35.3304 204.756 35.1211 203.654 34.7026C202.564 34.2841 201.606 33.6784 200.78 32.8855C199.965 32.0815 199.321 31.1013 198.847 29.9449C198.373 28.7885 198.137 27.4724 198.137 25.9967C198.137 24.62 198.373 23.359 198.847 22.2136C199.321 21.0572 199.965 20.066 200.78 19.24C201.606 18.414 202.564 17.7752 203.654 17.3237C204.756 16.8611 205.929 16.6299 207.173 16.6299C207.746 16.6299 208.313 16.7015 208.875 16.8446C209.436 16.9878 209.981 17.186 210.51 17.4393C211.039 17.6926 211.54 17.99 212.013 18.3314C212.498 18.6728 212.95 19.0418 213.368 19.4383L215.119 17.3402H216.209V35ZM211.666 25.9967C211.666 25.3799 211.545 24.7852 211.303 24.2125C211.072 23.6288 210.752 23.1167 210.345 22.6762C209.937 22.2246 209.458 21.8667 208.908 21.6024C208.368 21.327 207.79 21.1894 207.173 21.1894C206.556 21.1894 205.973 21.294 205.422 21.5032C204.882 21.7125 204.409 22.0209 204.001 22.4284C203.605 22.8358 203.291 23.3425 203.06 23.9482C202.828 24.5429 202.713 25.2257 202.713 25.9967C202.713 26.7676 202.828 27.4559 203.06 28.0616C203.291 28.6564 203.605 29.1575 204.001 29.565C204.409 29.9724 204.882 30.2808 205.422 30.4901C205.973 30.6993 206.556 30.8039 207.173 30.8039C207.79 30.8039 208.368 30.6718 208.908 30.4075C209.458 30.1321 209.937 29.7742 210.345 29.3337C210.752 28.8821 211.072 28.37 211.303 27.7973C211.545 27.2136 211.666 26.6134 211.666 25.9967ZM224.205 35H219.662V10.2697H224.205V35ZM234.695 30.6718C234.871 30.7269 235.048 30.7654 235.224 30.7874C235.4 30.7984 235.576 30.8039 235.753 30.8039C236.193 30.8039 236.617 30.7434 237.025 30.6222C237.432 30.5011 237.812 30.3304 238.164 30.1101C238.528 29.8788 238.847 29.6035 239.123 29.2841C239.409 28.9537 239.64 28.5903 239.816 28.1938L243.12 31.5143C242.702 32.109 242.217 32.6432 241.667 33.1167C241.127 33.5903 240.538 33.9923 239.899 34.3227C239.271 34.6531 238.605 34.9009 237.9 35.0661C237.206 35.2423 236.49 35.3304 235.753 35.3304C234.508 35.3304 233.335 35.0991 232.234 34.6366C231.143 34.174 230.185 33.5297 229.359 32.7037C228.544 31.8777 227.9 30.8976 227.426 29.7632C226.953 28.6178 226.716 27.3623 226.716 25.9967C226.716 24.598 226.953 23.3204 227.426 22.164C227.9 21.0076 228.544 20.022 229.359 19.207C230.185 18.392 231.143 17.7587 232.234 17.3072C233.335 16.8556 234.508 16.6299 235.753 16.6299C236.49 16.6299 237.212 16.718 237.917 16.8942C238.621 17.0704 239.288 17.3237 239.916 17.6541C240.554 17.9845 241.149 18.392 241.7 18.8766C242.25 19.3501 242.735 19.8843 243.153 20.479L234.695 30.6718ZM237.008 21.3711C236.799 21.294 236.59 21.2444 236.38 21.2224C236.182 21.2004 235.973 21.1894 235.753 21.1894C235.136 21.1894 234.552 21.305 234.001 21.5363C233.462 21.7565 232.988 22.0759 232.581 22.4944C232.184 22.9129 231.87 23.4195 231.639 24.0143C231.408 24.598 231.292 25.2588 231.292 25.9967C231.292 26.1619 231.298 26.3491 231.309 26.5583C231.331 26.7676 231.358 26.9823 231.391 27.2026C231.435 27.4119 231.485 27.6156 231.54 27.8138C231.595 28.0121 231.667 28.1883 231.755 28.3425L237.008 21.3711Z" fill="black"/>
<g clip-path="url(#clip0_4925_766)">
<path d="M39.0002 19.9293C39.0002 19.9293 38.3666 20.9417 37.8055 21.5949C37.768 21.6385 37.731 21.6803 37.6945 21.7203C37.6272 21.7927 37.5511 21.8709 37.4718 21.9501C37.128 22.2936 36.7235 22.6571 36.7235 22.6571C36.7235 22.6571 36.7393 22.5844 36.7663 22.4547C36.7761 22.4081 36.7875 22.353 36.8 22.2923C36.8026 22.2797 36.8052 22.267 36.8078 22.2538C36.9872 21.3764 37.3981 19.2509 37.4914 17.7533C37.5131 17.4007 37.5211 17.0168 37.5193 16.6199C37.5091 14.4773 37.2093 11.9596 37.2093 11.9596C37.2093 11.9596 34.5414 11.6702 31.532 9.8938C30.0344 9.01236 29.5866 7.36232 29.5866 7.36232C29.5866 7.36232 28.8188 7.75418 28.7167 9.02569C28.7079 9.13057 28.7037 9.23147 28.7035 9.3278C28.7029 9.52045 28.7173 9.69458 28.7383 9.84504C28.7435 9.88265 28.7494 9.91887 28.7552 9.9533C28.767 10.0226 28.78 10.0854 28.793 10.1414C28.8385 10.3376 28.8841 10.4494 28.8841 10.4494C28.8841 10.4494 27.1647 9.63269 25.5392 8.01848C25.3986 7.87936 25.2639 7.73826 25.1341 7.59617C23.513 5.82035 22.721 3.86204 22.4696 3.15136C22.407 2.97423 22.3779 2.87453 22.3779 2.87453C22.3779 2.87453 21.0278 5.37913 22.2522 8.32197C23.1633 10.5119 25.0666 11.8792 27.4911 13.4295C29.8992 14.9691 33.3411 16.2046 33.2712 16.1958C33.2712 16.1958 33.4332 18.5725 33.2712 21.7326C33.1256 24.8906 32.0386 28.236 29.4773 31.241C26.912 34.2445 22.416 37.6023 22.416 37.6023C22.416 37.6023 22.3891 37.5834 22.3395 37.5482C21.5671 36.7981 15.9218 31.3061 14.8698 29.9721C14.051 28.9268 13.5433 27.8305 14.4683 26.87C15.0805 26.2286 16.0117 25.9593 16.5656 25.8463C18.58 26.6453 19.9382 27.5811 19.9382 28.6739C19.9382 29.7667 18.5177 31.2412 18.5177 31.2412C18.5177 31.2412 20.7863 32.0928 22.1769 31.1719C23.4002 30.3544 23.6161 29.6186 23.649 29.4574C23.6203 29.9126 23.5466 30.3627 23.2665 31.0495C22.9641 31.7536 21.9165 32.5758 21.9165 32.5758C21.9165 32.5758 24.9002 32.0798 26.2597 30.4284C27.3217 29.1438 27.5356 27.2861 27.5356 27.2861C27.5356 27.2861 26.5784 27.8605 26.0515 27.9415C24.48 28.1696 23.8687 27.9461 22.3439 25.8849C21.3061 24.4892 20.9164 22.4029 19.9214 21.1459C19.373 20.4557 18.853 20.1536 18.5784 20.0314C18.9831 20.1154 19.797 20.3692 20.8822 21.1336C22.458 22.2499 23.1267 24.2522 25.2983 24.6398C25.7623 24.7262 26.4438 24.7258 26.7139 24.72C26.6969 24.9002 26.5517 25.251 26.4065 25.5756C26.0507 26.3681 25.2026 26.8545 25.2026 26.8545C25.2026 26.8545 25.2492 26.8441 25.3283 26.8203C25.5891 26.8139 27.0005 26.748 27.8474 26.055C28.5301 25.4586 28.776 24.7384 28.776 24.7384C28.776 24.7384 28.8987 25.7442 28.765 26.5514C28.592 27.5968 28.0112 28.7827 28.0112 28.7827C28.0112 28.7827 28.1001 28.7718 28.2617 28.7155C29.1242 28.4508 31.9333 27.3027 32.1672 23.522C32.3963 19.9618 31.1755 18.8951 31.1755 18.8951C31.1755 18.8951 30.6082 20.1304 29.211 20.071C27.1168 19.9843 24.4268 18.027 24.4268 18.027L26.6378 16.6615H26.6376C26.1075 16.5298 25.4126 16.3278 24.6218 16.0127C24.2449 15.8609 23.83 15.6778 23.3886 15.4581C22.0493 14.783 21.516 14.2676 20.2932 13.5684C20.2928 13.5682 20.2924 13.568 20.292 13.5678C20.2566 13.5471 20.2187 13.5258 20.1821 13.5047C20.7791 12.4685 21.3758 11.4322 21.9728 10.3959C20.7757 8.50984 19.4455 7.32172 18.5494 6.63731C18.0996 6.29361 16.7298 5.30848 14.6788 4.59243C12.9329 3.98284 11.9072 4.01787 10.4083 3.25604C9.06913 2.57481 8.32497 1.60819 7.77586 1C7.76765 1.42748 7.81571 2.11946 8.17858 2.8399C8.39786 3.27494 8.8086 3.87239 10.0344 4.64795C11.3216 5.46232 11.764 5.36978 13.7458 6.23908C15.0294 6.80209 15.8793 7.18201 16.8023 7.93867C17.6803 8.65831 18.2572 9.41775 18.6113 9.95689C18.1571 10.7092 17.7029 11.4612 17.2487 12.2135C16.9313 12.1076 16.5971 12.0054 16.2442 11.9092C16.3483 10.8919 16.4527 9.87469 16.5568 8.85733C15.7802 8.84698 14.7637 8.80916 13.5776 8.69851C10.985 8.45691 9.06212 7.97827 8.55206 7.88315C6.96321 7.58661 4.7071 6.96947 2 5.53596C3.49894 7.35954 5.02891 8.25112 5.98795 8.69871C7.22395 9.27526 8.34059 9.50034 10.394 9.9143C11.8844 10.2148 13.1306 10.384 13.9879 10.4823C13.8874 10.8984 13.7868 11.3148 13.6863 11.7309C13.3046 11.7343 12.8875 11.7687 12.3724 11.8475C11.7384 11.9206 11.0481 12.042 10.3153 12.2406C10.1295 12.2909 9.94907 12.3451 9.77104 12.4012C8.92094 12.6494 8.12451 13.0062 7.43122 13.379C6.56129 13.8387 5.84677 14.331 5.28905 14.7661C5.03913 14.9589 4.89955 15.0801 4.89955 15.0801C4.89955 15.0801 4.93219 15.0716 4.99166 15.0567C5.30126 14.9796 6.3374 14.7366 7.28323 14.6797C7.31967 14.6775 7.35592 14.6755 7.39197 14.6739C8.36382 14.6312 8.51662 14.7138 8.51662 14.7138C8.51662 14.7138 6.08488 15.3984 4.77318 17.1191C4.66164 17.2657 4.5561 17.412 4.45637 17.5573C3.35976 19.1572 2.96164 20.6562 2.82727 21.3418C2.82106 21.373 2.81565 21.4025 2.81045 21.4301C2.80043 21.4856 2.79222 21.534 2.78582 21.575C2.76979 21.6775 2.76439 21.7328 2.76439 21.7328L4.34743 21.2832C4.05646 21.9446 3.74666 22.9251 3.66135 23.7598C3.43225 26.0934 3.87382 26.8332 3.87402 26.8332C3.87402 26.8332 4.21486 25.1443 5.27603 24.0332L5.34933 23.9578L5.38597 23.92C5.4092 24.1511 5.44004 24.3921 5.4797 24.6424C5.49952 24.7676 5.52155 24.8952 5.54578 25.0249C5.59444 25.2845 5.65252 25.5531 5.72141 25.83C5.82474 26.2453 5.95231 26.6795 6.10871 27.1303C6.12633 27.1811 6.14656 27.2344 6.16838 27.2893C6.17339 27.3019 6.1784 27.3146 6.1836 27.3273C6.20523 27.3805 6.22846 27.4354 6.25329 27.4921C7.14625 29.5201 10.1611 33.7538 10.1611 33.7538L10.3153 31.9815L10.3155 31.9819C10.3155 31.9819 10.5524 32.3071 10.8242 32.6182C12.1587 34.1466 14.5638 36.0568 14.5638 36.0568C16.2825 37.4216 17.1974 38.0636 17.9708 38.7486C18.3433 39.0788 19.3949 40.0418 19.6502 40.2822C19.6572 40.2888 19.6642 40.2954 19.6712 40.302C19.8629 40.4823 20.0483 40.6588 20.2265 40.8293C20.2312 40.8337 20.2356 40.8381 20.2402 40.8425C21.521 42.0702 22.4154 42.9998 22.4154 42.9998C23.1003 42.3634 23.6524 41.8413 24.0331 41.4791C24.5437 40.9933 24.7708 40.7716 25.3049 40.2685C25.7375 39.8611 26.0637 39.5592 26.5125 39.1445C27.4701 38.2597 27.9489 37.8172 28.6206 37.2009C31.3555 34.6915 32.7231 33.4367 34.1269 31.7964C34.1269 31.7964 35.5812 30.0306 36.8094 28.0679C37.2299 27.3958 37.5698 26.6897 37.8443 25.9858C37.8671 25.9271 37.8896 25.8686 37.9116 25.8099C37.9775 25.6341 38.0396 25.4586 38.0978 25.2841C38.1173 25.2259 38.1363 25.1678 38.1549 25.1097C38.1922 24.9937 38.2276 24.8783 38.2616 24.7636C38.3295 24.534 38.3912 24.3071 38.4473 24.084C38.5174 23.8052 38.5785 23.5327 38.6319 23.269C38.6319 23.269 38.6477 23.1904 38.6632 23.1118C38.7327 22.7526 38.8652 21.5535 39.0002 19.9289V19.9293ZM21.9888 17.9929C21.79 17.9452 21.0298 17.7219 20.4839 16.9911C20.132 16.52 19.8356 15.6525 19.8356 15.6523C19.8356 15.6523 21.3129 16.489 21.9804 16.7451C23.0013 17.1403 23.5715 17.1851 23.5715 17.1851C23.5715 17.1851 22.8347 18.0791 21.9888 17.9929Z" fill="#111111"/>
<path d="M25.6484 40.0281C30.652 35.4552 32.1045 34.2479 34.1263 31.7967C35.3443 30.32 35.9687 29.4107 36.8088 28.0681C39.0517 24.4838 38.9994 19.9294 38.9994 19.9294C38.9994 19.9294 38.2785 21.0813 37.6935 21.7203C37.3353 22.1066 36.7225 22.6573 36.7225 22.6573C36.7225 22.6573 37.3703 19.6834 37.4907 17.7533C37.6297 15.4961 37.2085 11.9596 37.2085 11.9596C37.2085 11.9596 34.5407 11.6702 31.5312 9.89383C30.0336 9.01239 29.5859 7.36235 29.5859 7.36235C29.5859 7.36235 28.8181 7.75421 28.7159 9.02572C28.6446 9.86497 28.8834 10.4497 28.8834 10.4497C28.8834 10.4497 27.1639 9.63292 25.5384 8.01871C23.2048 5.70933 22.3772 2.87515 22.377 2.87476C22.377 2.87535 22.5005 5.9376 24.0573 8.13394C26.3651 11.3852 31.2176 13.2046 31.2176 13.2046C31.2176 13.2046 30.4678 12.3298 30.2701 11.7871C30.0106 11.0527 30.011 10.1396 30.011 10.1396C30.011 10.1396 31.6654 11.5966 32.7417 12.1353C33.8299 12.6814 36.1207 12.9149 36.1207 12.9149C36.1207 12.9149 36.6202 17.4761 35.9475 20.8222C35.4827 23.1916 34.501 26.1898 34.501 26.1898C34.501 26.1898 34.9474 25.9299 35.9475 25.2296C36.7109 24.6956 37.5738 23.9662 37.5738 23.9662C37.5738 23.9662 36.1095 28.0426 32.1107 31.9597C29.5294 34.482 26.4242 36.9935 24.8443 38.6782C23.7884 39.7997 22.6878 41.2115 22.6878 41.2115L22.415 43C23.049 42.4139 24.1995 41.3526 25.6486 40.0281H25.6484Z" fill="#0E6EFF"/>
<path fill-rule="evenodd" clip-rule="evenodd" d="M22.0391 18.004C22.0391 18.004 21.0206 18.1507 20.1038 17.594C19.3661 17.1462 19.2565 16.7603 18.9796 16.0936C18.7533 15.5507 18.209 15.0056 18.209 15.0056L19.8355 15.6524C19.8355 15.6524 20.1319 16.5201 20.4837 16.9912C21.1163 17.8382 22.0389 18.0042 22.0389 18.0042L22.0391 18.004Z" fill="#0E6EFF"/>
<path d="M11.7811 26.108C10.5799 27.8687 13.4408 30.3548 15.3871 32.1282C17.8423 34.359 22.4274 37.6344 22.4274 37.6344C22.4274 37.6344 15.9989 31.4048 14.8693 29.9723C14.0504 28.9271 13.5428 27.8307 14.4678 26.8702C15.0799 26.2288 16.0113 25.9595 16.5651 25.8465C18.5795 26.6455 19.9376 27.5813 19.9376 28.6741C19.9376 29.7669 18.5172 31.2414 18.5172 31.2414C18.5172 31.2414 21.7806 29.5952 20.1393 27.0279C18.9566 25.171 15.4426 24.1491 14.2621 23.7443C13.0818 23.3379 11.4184 23.1098 11.4184 23.1098C11.4184 23.1098 11.7032 22.7166 12.7245 22.0119C14.2621 20.9471 16.0752 20.8996 16.0752 20.8996C16.0752 20.8996 13.2342 20.6367 11.2906 21.7585C9.34554 22.8824 8.80664 24.2197 8.80664 24.2197C8.80664 24.2197 11.4202 24.4962 13.893 25.056C13.3513 25.1394 12.2677 25.3927 11.7815 26.108H11.7811Z" fill="#0E6EFF"/>
<path fill-rule="evenodd" clip-rule="evenodd" d="M31.1741 18.8953C31.1741 18.8953 31.5569 20.5278 30.7625 21.5633C29.9425 22.6451 30.7625 23.6655 30.7625 25.1955C30.7625 26.7255 28.0098 28.7829 28.0098 28.7829C28.0098 28.7829 31.889 27.9936 32.1657 23.5222C32.3948 19.962 31.1741 18.8953 31.1741 18.8953Z" fill="#0E6EFF"/>
<path d="M20.8831 21.1336C19.3 20.0185 18.2939 19.9901 18.2939 19.9901C18.2939 19.9901 18.8931 19.521 19.9863 19.8709C21.1158 20.2331 22.0736 21.2656 23.4116 22.4847C25.5633 24.4424 27.8205 23.7403 27.8205 23.7403C27.8205 23.7403 27.4213 25.4252 26.6608 26.0911C25.9853 26.682 25.2035 26.8547 25.2035 26.8547C25.2035 26.8547 26.0516 26.3685 26.4074 25.5758C26.5526 25.2514 26.6978 24.9006 26.7148 24.7203C26.4447 24.726 25.7634 24.7262 25.2992 24.6401C23.1276 24.2524 22.4589 22.2499 20.8831 21.1338V21.1336Z" fill="#0E6EFF"/>
<path d="M23.8243 16.4349C25.7222 17.1291 26.635 16.6626 26.637 16.6616C26.637 16.6616 26.637 16.6616 26.6368 16.6616C26.633 16.6608 25.8225 16.497 24.6206 16.0126C24.3684 15.9109 23.9209 15.7284 23.3878 15.4579C22.0835 14.7966 21.7733 14.388 20.2341 13.5344C20.2139 13.5231 20.2031 13.5165 20.181 13.5044L19.5889 14.4999C21.9824 15.6643 22.026 15.7795 23.8239 16.4349H23.8243Z" fill="#0E6EFF"/>
<path d="M18.9891 37.6268C16.2354 35.1688 14.714 34.2485 12.2737 31.8003C11.161 30.684 10.3282 29.7225 9.84253 29.1428L9.5101 31.2245C9.5101 31.2245 8.06584 29.4893 7.30185 26.7309C6.53386 23.9722 7.05834 21.2182 7.05834 21.2182C7.05834 21.2182 6.22286 21.8383 5.72922 22.4507C5.16829 23.1473 4.66204 23.6663 4.66204 23.6663C4.66204 23.6663 4.66384 22.8468 5.27283 21.5336C5.61587 20.7973 6.93077 19.3654 6.93077 19.3654C6.93077 19.3654 6.0989 19.3626 5.72922 19.4514C4.87792 19.6609 4.26312 19.8663 4.26312 19.8663C4.26312 19.8663 5.18612 18.2292 6.93077 16.9531C8.88249 15.5256 12.0836 14.7011 12.0836 14.7011C12.0836 14.7011 11.4993 14.4105 10.9159 14.2248C10.3402 14.0417 9.53293 13.9382 9.53293 13.9382C9.53293 13.9382 10.3748 13.3209 13.4614 12.9638C14.6165 12.8303 15.629 12.9589 16.6313 13.2574L17.2487 12.213C16.9273 12.1081 16.6053 11.9843 16.2442 11.9087C16.3483 10.8913 16.4527 9.87414 16.5568 8.85677C15.7802 8.84642 14.7637 8.80861 13.5776 8.69795C10.985 8.45635 9.06212 7.97772 8.55207 7.88259C6.96321 7.58605 4.7071 6.96891 2 5.5354C3.49894 7.35898 5.02891 8.25057 5.98795 8.69815C7.22395 9.2747 8.34059 9.49979 10.394 9.91374C11.8844 10.2143 13.1306 10.3834 13.9879 10.4817C13.8874 10.8979 13.7868 11.3142 13.6863 11.7304C13.1608 11.7441 11.8882 11.8074 10.3153 12.24C8.84745 12.6438 7.73161 13.1993 7.04572 13.589C6.14195 14.1026 5.42563 14.6398 4.89955 15.0796C4.89955 15.0796 6.23788 14.7253 7.39197 14.6734C8.36382 14.6306 8.51662 14.7132 8.51662 14.7132C8.51662 14.7132 6.08488 15.3978 4.77318 17.1185C2.98788 19.4639 2.76459 21.7325 2.76459 21.7325L4.34763 21.2829C4.05666 21.9442 3.74686 22.9248 3.66155 23.7594C3.43245 26.0933 3.87422 26.8328 3.87422 26.8328C3.87422 26.8328 4.21506 25.144 5.27623 24.0329L5.38617 23.9196C5.4795 24.8439 5.69197 25.9279 6.10891 27.13C6.74673 28.9585 10.1613 33.7534 10.1613 33.7534L10.3155 31.9812C10.9045 32.6707 11.7898 33.667 12.9337 34.8032C13.6583 35.5228 14.3041 36.1175 17.2141 38.5994C17.2141 38.5994 19.208 40.3 22.4156 42.9996C22.5065 42.4034 22.5974 41.8073 22.6883 41.2111C21.1567 39.6038 19.8483 38.3932 18.9891 37.6266V37.6268Z" fill="#0E6EFF"/>
</g>
<defs>
<clipPath id="clip0_4925_766">
<rect width="37" height="42" fill="white" transform="translate(2 1)"/>
</clipPath>
</defs>
</svg>
