<svg xmlns="http://www.w3.org/2000/svg" viewBox="0 0 600 588.85"><defs><style>.cls-1{fill:#0d53d7;}.cls-2{fill:#fff;}</style></defs><g id="Layer_1" data-name="Layer 1"><rect class="cls-1" width="600" height="588.85" rx="46.24"/></g><g id="Layer_4" data-name="Layer 4"><path class="cls-2" d="M666.71,483.75c2.67-.26,5.33-.62,7.95-1.09a119,119,0,0,0,98.56-117.25H555.68a117.72,117.72,0,0,0-20.44,1.77,119,119,0,0,0-98.56,117.24H654.22A114.77,114.77,0,0,0,666.71,483.75Z" transform="translate(-310.71 -287.49)"/><path class="cls-2" d="M614.69,686.1H510.87a119,119,0,0,0-67.1,107.1,115,115,0,0,0,.74,13.21H678c1.07-.21,2.12-.42,3.16-.66a119.05,119.05,0,0,0,92.11-116c0-1.24,0-2.47-.07-3.69Z" transform="translate(-310.71 -287.49)"/><path class="cls-2" d="M535.22,643.88H773.15A119.07,119.07,0,0,0,674.62,530.3c-2.86-.47-5.74-.88-8.64-1.14.08-.19.15-.4.23-.59H436.7A119,119,0,0,0,535.22,643.88Zm62.93-101.31c-2.56,1.38-5.08,2.84-7.53,4.4C593.07,545.41,595.59,544,598.15,542.57ZM551.7,587.13a118.64,118.64,0,0,1,9.9-14.28q2.73-3.37,5.69-6.55t6.14-6.11q3.2-2.94,6.58-5.66-3.39,2.72-6.58,5.66t-6.14,6.11q-3,3.16-5.69,6.55a118.64,118.64,0,0,0-9.9,14.28c-1.48,2.5-2.87,5.07-4.17,7.68C548.83,592.2,550.22,589.63,551.7,587.13Z" transform="translate(-310.71 -287.49)"/></g></svg>